<?xml version="1.0" encoding="UTF-8" standalone="no"?>
<!-- Created with Inkscape (http://www.inkscape.org/) -->

<svg
   xmlns:dc="http://purl.org/dc/elements/1.1/"
   xmlns:cc="http://creativecommons.org/ns#"
   xmlns:rdf="http://www.w3.org/1999/02/22-rdf-syntax-ns#"
   xmlns:svg="http://www.w3.org/2000/svg"
   xmlns="http://www.w3.org/2000/svg"
   xmlns:sodipodi="http://sodipodi.sourceforge.net/DTD/sodipodi-0.dtd"
   xmlns:inkscape="http://www.inkscape.org/namespaces/inkscape"
   width="744.35999"
   height="744.09003"
   id="svg4831"
   version="1.1"
   inkscape:version="0.47 r22583"
   sodipodi:docname="maki-mono.svg">
  <defs
     id="defs4833">
    <inkscape:perspective
       sodipodi:type="inkscape:persp3d"
       inkscape:vp_x="0 : 526.18109 : 1"
       inkscape:vp_y="0 : 1000 : 0"
       inkscape:vp_z="744.09448 : 526.18109 : 1"
       inkscape:persp3d-origin="372.04724 : 350.78739 : 1"
       id="perspective4839" />
    <inkscape:perspective
       id="perspective5375"
       inkscape:persp3d-origin="0.5 : 0.33333333 : 1"
       inkscape:vp_z="1 : 0.5 : 1"
       inkscape:vp_y="0 : 1000 : 0"
       inkscape:vp_x="0 : 0.5 : 1"
       sodipodi:type="inkscape:persp3d" />
    <inkscape:perspective
       id="perspective5397"
       inkscape:persp3d-origin="0.5 : 0.33333333 : 1"
       inkscape:vp_z="1 : 0.5 : 1"
       inkscape:vp_y="0 : 1000 : 0"
       inkscape:vp_x="0 : 0.5 : 1"
       sodipodi:type="inkscape:persp3d" />
    <inkscape:perspective
       id="perspective5419"
       inkscape:persp3d-origin="0.5 : 0.33333333 : 1"
       inkscape:vp_z="1 : 0.5 : 1"
       inkscape:vp_y="0 : 1000 : 0"
       inkscape:vp_x="0 : 0.5 : 1"
       sodipodi:type="inkscape:persp3d" />
    <inkscape:perspective
       id="perspective5441"
       inkscape:persp3d-origin="0.5 : 0.33333333 : 1"
       inkscape:vp_z="1 : 0.5 : 1"
       inkscape:vp_y="0 : 1000 : 0"
       inkscape:vp_x="0 : 0.5 : 1"
       sodipodi:type="inkscape:persp3d" />
    <inkscape:perspective
       id="perspective5463"
       inkscape:persp3d-origin="0.5 : 0.33333333 : 1"
       inkscape:vp_z="1 : 0.5 : 1"
       inkscape:vp_y="0 : 1000 : 0"
       inkscape:vp_x="0 : 0.5 : 1"
       sodipodi:type="inkscape:persp3d" />
    <inkscape:perspective
       id="perspective3637"
       inkscape:persp3d-origin="0.5 : 0.33333333 : 1"
       inkscape:vp_z="1 : 0.5 : 1"
       inkscape:vp_y="0 : 1000 : 0"
       inkscape:vp_x="0 : 0.5 : 1"
       sodipodi:type="inkscape:persp3d" />
  </defs>
  <sodipodi:namedview
     id="base"
     pagecolor="#ffffff"
     bordercolor="#666666"
     borderopacity="1.0"
     inkscape:pageopacity="0.0"
     inkscape:pageshadow="2"
     inkscape:zoom="0.125"
     inkscape:cx="581.64168"
     inkscape:cy="923.11624"
     inkscape:document-units="px"
     inkscape:current-layer="layer1"
     showgrid="false"
     inkscape:window-width="1024"
     inkscape:window-height="694"
     inkscape:window-x="0"
     inkscape:window-y="24"
     inkscape:window-maximized="1" />
  <metadata
     id="metadata4836">
    <rdf:RDF>
      <cc:Work
         rdf:about="">
        <dc:format>image/svg+xml</dc:format>
        <dc:type
           rdf:resource="http://purl.org/dc/dcmitype/StillImage" />
        <dc:title />
      </cc:Work>
    </rdf:RDF>
  </metadata>
  <g
     inkscape:label="Layer 1"
     inkscape:groupmode="layer"
     id="layer1"
     transform="translate(0,-308.27218)">
    <path
       sodipodi:type="arc"
       style="fill:#333333;fill-opacity:0;stroke:#b3b3b3;stroke-width:30;stroke-linejoin:miter;stroke-miterlimit:4;stroke-opacity:1;stroke-dasharray:none"
       id="path4841-2"
       sodipodi:cx="529.75946"
       sodipodi:cy="378.20129"
       sodipodi:rx="211.00587"
       sodipodi:ry="204.27165"
       d="M 739.97153,360.49922 A 211.00587,204.27165 0 1 1 684.76735,239.606"
       transform="translate(-162.76703,315.11883)"
       sodipodi:start="6.196417"
       sodipodi:end="11.820672"
       sodipodi:open="true" />
    <path
       sodipodi:type="arc"
       style="fill:#333333;fill-opacity:0;stroke:#333333;stroke-width:35;stroke-linejoin:miter;stroke-miterlimit:4;stroke-opacity:1;stroke-dasharray:none"
       id="path4841"
       sodipodi:cx="529.75946"
       sodipodi:cy="378.20129"
       sodipodi:rx="211.00587"
       sodipodi:ry="204.27165"
       d="M 739.97153,360.49922 A 211.00587,204.27165 0 1 1 684.76735,239.606"
       transform="translate(-162.76703,307.11883)"
       sodipodi:start="6.196417"
       sodipodi:end="11.820672"
       sodipodi:open="true" />
    <path
       style="fill:#333333;fill-opacity:1;stroke:#b3b3b3;stroke-width:15;stroke-linejoin:miter;stroke-miterlimit:4;stroke-opacity:1"
       d="m 716.32755,456.69598 -0.78873,19.397 -337.63414,205.87543 338.42287,-225.27243 z"
       id="rect5360-0"
       sodipodi:nodetypes="cccc" />
    <path
       style="fill:#333333;fill-opacity:1;stroke:#333333;stroke-width:15;stroke-linejoin:miter;stroke-miterlimit:4;stroke-opacity:1"
       d="M 711.05742,466.37174 377.90468,671.96841 c 111.2161,-73.9251 210.02451,-147.8502 333.6483,-221.7753 l -0.49556,16.17863 z"
       id="rect5360"
       sodipodi:nodetypes="cccc" />
    <g
       id="g3651"
       transform="matrix(0.99513068,-0.09856431,0.09856431,0.99513068,-60.945798,35.920284)">
      <path
         sodipodi:nodetypes="cccc"
         id="rect5360-1-7"
         d="M 721.7964,599.69815 389.36757,712.29162 722.10428,584.9956 c -1.98453,15.24074 0.81288,2.98042 -0.30788,14.70255 z"
         style="fill:#333333;fill-opacity:1;stroke:#b3b3b3;stroke-width:15;stroke-linejoin:miter;stroke-miterlimit:4;stroke-opacity:1" />
      <path
         sodipodi:nodetypes="cccc"
         id="rect5360-1"
         d="m 716.74659,593.40852 -327.37902,110.8831 328.70725,-125.00309 -1.32823,14.11999 z"
         style="fill:#333333;fill-opacity:1;stroke:#333333;stroke-width:15;stroke-linejoin:miter;stroke-miterlimit:4;stroke-opacity:1" />
    </g>
    <g
       id="g3332"
       transform="translate(-6,0)">
      <path
         sodipodi:nodetypes="ccccccccccccc"
         id="rect2834-3"
         d="m 372,569.6875 c -41.21155,41.25715 -82.41658,82.52127 -123.71875,123.6875 41.82556,41.67402 83.55182,83.44875 125.1875,125.3125 38.5081,-39.29988 90.20789,-87.30554 126.5,-128.84375 -17.74657,5.67912 -50.65211,16.79223 -62.84375,32.75 -21.1801,21.22614 -42.36703,42.44546 -63.5625,63.65625 -30.88338,-31.02274 -61.8106,-62.00203 -92.84375,-92.875 31.04634,-30.85972 61.95808,-61.85443 92.90625,-92.8125 13.05337,12.82999 25.89217,26.0095 38.8125,39 5.48054,-5.31024 10.94496,-10.63814 16.375,-16 -18.20915,-18.70041 -36.46092,-37.36791 -55.4375,-55.25 l -0.70711,0.70711 L 372,569.6875 z"
         style="font-size:medium;font-style:normal;font-variant:normal;font-weight:normal;font-stretch:normal;text-indent:0;text-align:start;text-decoration:none;line-height:normal;letter-spacing:normal;word-spacing:normal;text-transform:none;direction:ltr;block-progression:tb;writing-mode:lr-tb;text-anchor:start;color:#000000;fill:#b3b3b3;fill-opacity:0.8;fill-rule:nonzero;stroke:#000000;stroke-width:15;stroke-opacity:0;marker:none;visibility:visible;display:inline;overflow:visible;enable-background:accumulate;font-family:AlArabiya;-inkscape-font-specification:AlArabiya" />
      <path
         sodipodi:nodetypes="cccsccccccccccc"
         id="rect2834"
         d="m 372,561.6875 c -41.21155,41.25715 -82.41658,82.52127 -123.71875,123.6875 41.82556,41.67402 83.55182,83.44875 125.1875,125.3125 31.99722,-32.65513 65.50765,-65.49918 96.74527,-97.5918 6.50305,-6.68106 26.11852,-24.72874 32.25473,-31.75195 -11.46164,3.60074 -34.22298,9.38247 -46.23542,15.39491 -7.01245,7.01244 -14.64657,12.01505 -19.10833,17.85509 -21.1801,21.22614 -42.36703,42.44546 -63.5625,63.65625 -30.88338,-31.02274 -61.8106,-62.00203 -92.84375,-92.875 31.04634,-30.85972 61.95808,-61.85443 92.90625,-92.8125 13.05337,12.82999 25.89217,26.0095 38.8125,39 5.48054,-5.31024 10.94496,-10.63814 16.375,-16 -18.20915,-18.70041 -36.46092,-37.36791 -55.4375,-55.25 l -0.70711,0.70711 L 372,561.6875 z"
         style="font-size:medium;font-style:normal;font-variant:normal;font-weight:normal;font-stretch:normal;text-indent:0;text-align:start;text-decoration:none;line-height:normal;letter-spacing:normal;word-spacing:normal;text-transform:none;direction:ltr;block-progression:tb;writing-mode:lr-tb;text-anchor:start;color:#000000;fill:#333333;fill-opacity:1;fill-rule:nonzero;stroke:none;stroke-width:15;marker:none;visibility:visible;display:inline;overflow:visible;enable-background:accumulate;font-family:AlArabiya;-inkscape-font-specification:AlArabiya" />
    </g>
  </g>
</svg>
