<?xml version="1.0" encoding="UTF-8" standalone="no"?>
<!-- Created with Inkscape (http://www.inkscape.org/) -->

<svg
   xmlns:dc="http://purl.org/dc/elements/1.1/"
   xmlns:cc="http://creativecommons.org/ns#"
   xmlns:rdf="http://www.w3.org/1999/02/22-rdf-syntax-ns#"
   xmlns:svg="http://www.w3.org/2000/svg"
   xmlns="http://www.w3.org/2000/svg"
   xmlns:sodipodi="http://sodipodi.sourceforge.net/DTD/sodipodi-0.dtd"
   xmlns:inkscape="http://www.inkscape.org/namespaces/inkscape"
   width="640"
   height="640"
   id="svg3877"
   version="1.1"
   inkscape:version="0.47 r22583"
   sodipodi:docname="nigiri-mono.svg">
  <defs
     id="defs3879">
    <inkscape:perspective
       sodipodi:type="inkscape:persp3d"
       inkscape:vp_x="0 : 526.18109 : 1"
       inkscape:vp_y="0 : 1000 : 0"
       inkscape:vp_z="744.09448 : 526.18109 : 1"
       inkscape:persp3d-origin="372.04724 : 350.78739 : 1"
       id="perspective3885" />
    <inkscape:perspective
       id="perspective4409"
       inkscape:persp3d-origin="0.5 : 0.33333333 : 1"
       inkscape:vp_z="1 : 0.5 : 1"
       inkscape:vp_y="0 : 1000 : 0"
       inkscape:vp_x="0 : 0.5 : 1"
       sodipodi:type="inkscape:persp3d" />
    <inkscape:perspective
       id="perspective4432"
       inkscape:persp3d-origin="0.5 : 0.33333333 : 1"
       inkscape:vp_z="1 : 0.5 : 1"
       inkscape:vp_y="0 : 1000 : 0"
       inkscape:vp_x="0 : 0.5 : 1"
       sodipodi:type="inkscape:persp3d" />
    <inkscape:perspective
       id="perspective4454"
       inkscape:persp3d-origin="0.5 : 0.33333333 : 1"
       inkscape:vp_z="1 : 0.5 : 1"
       inkscape:vp_y="0 : 1000 : 0"
       inkscape:vp_x="0 : 0.5 : 1"
       sodipodi:type="inkscape:persp3d" />
    <inkscape:perspective
       id="perspective4486"
       inkscape:persp3d-origin="0.5 : 0.33333333 : 1"
       inkscape:vp_z="1 : 0.5 : 1"
       inkscape:vp_y="0 : 1000 : 0"
       inkscape:vp_x="0 : 0.5 : 1"
       sodipodi:type="inkscape:persp3d" />
    <inkscape:perspective
       sodipodi:type="inkscape:persp3d"
       inkscape:vp_x="0 : 0.5 : 1"
       inkscape:vp_y="0 : 1000 : 0"
       inkscape:vp_z="1 : 0.5 : 1"
       inkscape:persp3d-origin="0.5 : 0.33333333 : 1"
       id="perspective3744" />
    <inkscape:perspective
       sodipodi:type="inkscape:persp3d"
       inkscape:vp_x="0 : 0.5 : 1"
       inkscape:vp_y="0 : 1000 : 0"
       inkscape:vp_z="1 : 0.5 : 1"
       inkscape:persp3d-origin="0.5 : 0.33333333 : 1"
       id="perspective3720" />
    <inkscape:perspective
       sodipodi:type="inkscape:persp3d"
       inkscape:vp_x="0 : 0.5 : 1"
       inkscape:vp_y="0 : 1000 : 0"
       inkscape:vp_z="1 : 0.5 : 1"
       inkscape:persp3d-origin="0.5 : 0.33333333 : 1"
       id="perspective3696" />
    <inkscape:perspective
       sodipodi:type="inkscape:persp3d"
       inkscape:vp_x="0 : 0.5 : 1"
       inkscape:vp_y="0 : 1000 : 0"
       inkscape:vp_z="1 : 0.5 : 1"
       inkscape:persp3d-origin="0.5 : 0.33333333 : 1"
       id="perspective3661" />
    <inkscape:perspective
       sodipodi:type="inkscape:persp3d"
       inkscape:vp_x="0 : 0.5 : 1"
       inkscape:vp_y="0 : 1000 : 0"
       inkscape:vp_z="1 : 0.5 : 1"
       inkscape:persp3d-origin="0.5 : 0.33333333 : 1"
       id="perspective3625" />
    <inkscape:perspective
       sodipodi:type="inkscape:persp3d"
       inkscape:vp_x="0 : 0.5 : 1"
       inkscape:vp_y="0 : 1000 : 0"
       inkscape:vp_z="1 : 0.5 : 1"
       inkscape:persp3d-origin="0.5 : 0.33333333 : 1"
       id="perspective2827" />
    <inkscape:perspective
       id="perspective10"
       inkscape:persp3d-origin="372.04724 : 350.78739 : 1"
       inkscape:vp_z="744.09448 : 526.18109 : 1"
       inkscape:vp_y="0 : 1000 : 0"
       inkscape:vp_x="0 : 526.18109 : 1"
       sodipodi:type="inkscape:persp3d" />
    <inkscape:perspective
       id="perspective4656"
       inkscape:persp3d-origin="0.5 : 0.33333333 : 1"
       inkscape:vp_z="1 : 0.5 : 1"
       inkscape:vp_y="0 : 1000 : 0"
       inkscape:vp_x="0 : 0.5 : 1"
       sodipodi:type="inkscape:persp3d" />
    <inkscape:perspective
       id="perspective4700"
       inkscape:persp3d-origin="0.5 : 0.33333333 : 1"
       inkscape:vp_z="1 : 0.5 : 1"
       inkscape:vp_y="0 : 1000 : 0"
       inkscape:vp_x="0 : 0.5 : 1"
       sodipodi:type="inkscape:persp3d" />
    <inkscape:perspective
       id="perspective4722"
       inkscape:persp3d-origin="0.5 : 0.33333333 : 1"
       inkscape:vp_z="1 : 0.5 : 1"
       inkscape:vp_y="0 : 1000 : 0"
       inkscape:vp_x="0 : 0.5 : 1"
       sodipodi:type="inkscape:persp3d" />
    <inkscape:perspective
       id="perspective4746"
       inkscape:persp3d-origin="0.5 : 0.33333333 : 1"
       inkscape:vp_z="1 : 0.5 : 1"
       inkscape:vp_y="0 : 1000 : 0"
       inkscape:vp_x="0 : 0.5 : 1"
       sodipodi:type="inkscape:persp3d" />
  </defs>
  <sodipodi:namedview
     id="base"
     pagecolor="#ffffff"
     bordercolor="#666666"
     borderopacity="1.0"
     inkscape:pageopacity="0.0"
     inkscape:pageshadow="2"
     inkscape:zoom="0.35355339"
     inkscape:cx="369.09035"
     inkscape:cy="359.73241"
     inkscape:document-units="px"
     inkscape:current-layer="layer1"
     showgrid="false"
     inkscape:window-width="1024"
     inkscape:window-height="694"
     inkscape:window-x="0"
     inkscape:window-y="24"
     inkscape:window-maximized="1" />
  <metadata
     id="metadata3882">
    <rdf:RDF>
      <cc:Work
         rdf:about="">
        <dc:format>image/svg+xml</dc:format>
        <dc:type
           rdf:resource="http://purl.org/dc/dcmitype/StillImage" />
        <dc:title />
      </cc:Work>
    </rdf:RDF>
  </metadata>
  <g
     inkscape:label="Layer 1"
     inkscape:groupmode="layer"
     id="layer1"
     transform="translate(0,-412.36224)">
    <g
       id="g2838"
       transform="translate(-166.29141,63.39697)">
      <path
         sodipodi:nodetypes="ccccc"
         id="rect4825"
         d="m 617.7683,594.40104 0.64351,-10.45067 -255.36014,104.42115 -1.05778,27.36415 255.77441,-121.33463 z"
         style="font-size:medium;font-style:normal;font-variant:normal;font-weight:normal;font-stretch:normal;text-indent:0;text-align:start;text-decoration:none;line-height:normal;letter-spacing:normal;word-spacing:normal;text-transform:none;direction:ltr;block-progression:tb;writing-mode:lr-tb;text-anchor:start;color:#000000;fill:#d7d7d7;fill-opacity:1;fill-rule:nonzero;stroke:none;stroke-width:21.25294876;marker:none;visibility:visible;display:inline;overflow:visible;enable-background:accumulate;font-family:AlArabiya;-inkscape-font-specification:AlArabiya" />
      <path
         sodipodi:nodetypes="ccccccccccccscccccccsccsccsccsccc"
         id="rect3887"
         d="m 424.78125,438.0177 c -34.35008,0 -63.21875,26.43157 -63.21875,59.84375 l 0.5312,209.5 24,-11 0.4688,-198.5 c 0,-19.04518 16.39953,-34.84375 38.21875,-34.84375 l 130.09375,0 c 21.81922,0 38.1875,15.79857 38.1875,34.84375 l 0,0.0625 0,0.0625 c 0.33564,31.44826 0.96618,67.49592 1,100.1875 l 24,-11.5312 c -0.0338,-32.70514 0.33603,-57.24188 0,-88.78125 -4.2e-4,-0.0397 4.2e-4,-0.0853 0,-0.125 -0.0725,-33.35255 -28.88065,-59.71875 -63.1875,-59.71875 l -130.09375,0 0,-5e-5 z m 193.28125,249.53125 -24,16.0312 c 0.0824,79.63898 -0.97308,56.43076 -1,136.625 0,9.52259 -3.70924,16.56443 -10.3125,22.0625 -6.60326,5.49807 -16.41463,9.0625 -27.875,9.0625 l -130.09375,0 c -17.4551,-8e-5 -32.50861,-12.62894 -36.8125,-25.4375 -0.48856,-1.45398 -2.36257,-9.06697 -2.59375,-10.78125 l -21.28125,12.84375 c 1.92312,7.63762 -1.38333,-0.71884 -0.34375,2.375 7.98911,23.77592 32.26163,45.99988 61.03125,46 l 130.09375,0 c 16.62428,0 32.15227,-5.11431 43.875,-14.875 11.72273,-9.76069 19.3125,-24.54391 19.3125,-41.25 0.0269,-80.07508 0.58256,-69.90039 0.5,-149.65625 l -0.5,-2.99995 z"
         style="font-size:medium;font-style:normal;font-variant:normal;font-weight:normal;font-stretch:normal;text-indent:0;text-align:start;text-decoration:none;line-height:normal;letter-spacing:normal;word-spacing:normal;text-transform:none;direction:ltr;block-progression:tb;writing-mode:lr-tb;text-anchor:start;color:#000000;fill:#3a3935;fill-opacity:1;fill-rule:nonzero;stroke:none;stroke-width:25;marker:none;visibility:visible;display:inline;overflow:visible;enable-background:accumulate;font-family:AlArabiya;-inkscape-font-specification:AlArabiya" />
      <path
         id="path25"
         sodipodi:nodetypes="ccccccccccccccccccccsccsccccc"
         d="m 429.59375,450 c -31.61171,0 -57.53125,25.56566 -57.53125,57.03125 l 0,0.0312 0,0.0312 1,196.3125 22.78125,-14.5937 -0.5,-181.78125 0,-0.0625 c 0.0339,-18.79059 15.01921,-33.65625 34.25,-33.65625 l 117.8125,0 c 19.25255,0 34.25,14.89806 34.25,33.71875 l 0,97.34375 23.8125,-13.5 -0.5,-83.84375 C 604.96875,475.56566 579.01796,450 547.40625,450 l -117.8125,0 z m 152.0625,263.875 0,117.78125 c 0,18.82069 -14.99745,33.75 -34.25,33.75 l -117.8125,0 c -13.43541,0 -25.5148,-7.68362 -29.9375,-17.21875 -1.64868,-3.55446 -5.44279,-14.51244 -6.15625,-17.875 l -20.28125,12.34375 c 1.1998,5.65468 3.18244,10.75145 5.3125,15.34375 8.8317,19.04071 29.12699,30.6875 51.0625,30.6875 l 117.8125,0 c 31.61171,0 57.5625,-25.56566 57.5625,-57.03125 l 0,-117.78125 -23.3125,0 z"
         style="font-size:medium;font-style:normal;font-variant:normal;font-weight:normal;font-stretch:normal;text-indent:0;text-align:start;text-decoration:none;line-height:normal;letter-spacing:normal;word-spacing:normal;text-transform:none;direction:ltr;block-progression:tb;writing-mode:lr-tb;text-anchor:start;color:#000000;fill:#000000;fill-opacity:0.15686275;fill-rule:nonzero;stroke:none;stroke-width:23.29262352;marker:none;visibility:visible;display:inline;overflow:visible;enable-background:accumulate;font-family:AlArabiya;-inkscape-font-specification:AlArabiya" />
      <path
         sodipodi:nodetypes="ccccc"
         id="rect3889-3-3"
         d="m 582.75168,725.64761 -0.14604,18.43793 -37.43575,0 11.43808,-7.12458 26.14371,-11.31335 z"
         style="fill:#3a3935;fill-opacity:1;stroke:#d7d7d7;stroke-width:12.69024658;stroke-linejoin:miter;stroke-miterlimit:4;stroke-opacity:1;stroke-dasharray:none" />
      <path
         sodipodi:nodetypes="cccccccccccccc"
         id="rect3889-3"
         d="m 597.5625,595.75 -30.46875,0 -185.3125,0 -14.4375,0 0,14.4375 -1.62132,95.89153 231.06058,-109.24669 m -58.68986,143.54266 24.7506,0 34.71875,0 14.40625,0 0,-14.40625 0,-21.5 -7.33519,-7.60248"
         style="font-size:medium;font-style:normal;font-variant:normal;font-weight:normal;font-stretch:normal;text-indent:0;text-align:start;text-decoration:none;line-height:normal;letter-spacing:normal;word-spacing:normal;text-transform:none;direction:ltr;block-progression:tb;writing-mode:lr-tb;text-anchor:start;color:#000000;fill:#3a3935;fill-opacity:1;fill-rule:nonzero;stroke:none;stroke-width:28.84595299;marker:none;visibility:visible;display:inline;overflow:visible;enable-background:accumulate;font-family:AlArabiya;-inkscape-font-specification:AlArabiya" />
      <path
         sodipodi:nodetypes="cccc"
         id="rect3889-7-8-9"
         d="M 670.72432,591.1968 255.18368,819.73004 251.03912,811.28477 670.72432,591.1968 z"
         style="fill:#d4d4d4;fill-opacity:1;stroke:#d7d7d7;stroke-width:15.37469578;stroke-linejoin:miter;stroke-miterlimit:4;stroke-opacity:1;stroke-dasharray:none" />
      <g
         id="g4777">
        <path
           style="fill:#3a3935;fill-opacity:1;stroke:#d7d7d7;stroke-width:15.39489651;stroke-linejoin:miter;stroke-miterlimit:4;stroke-opacity:1;stroke-dasharray:none"
           d="m 682.29296,621.37224 -401.28528,255.77745 -4.63399,-8.18115 405.91927,-247.5963 z"
           id="rect3889-7-6"
           sodipodi:nodetypes="cccc" />
        <path
           style="fill:#3a3935;fill-opacity:1;stroke:#3a3935;stroke-width:15.39489651;stroke-linejoin:miter;stroke-miterlimit:4;stroke-opacity:1;stroke-dasharray:none"
           d="m 682.29296,613.37224 -401.28528,255.77745 -4.63399,-8.18115 405.91927,-247.5963 z"
           id="rect3889-7"
           sodipodi:nodetypes="cccc" />
        <path
           style="fill:#3a3935;fill-opacity:1;stroke:#3a3935;stroke-width:15.37469578;stroke-linejoin:miter;stroke-miterlimit:4;stroke-opacity:1;stroke-dasharray:none"
           d="M 670.72432,581.1968 255.18368,809.73004 251.03912,801.28477 670.72432,581.1968 z"
           id="rect3889-7-8"
           sodipodi:nodetypes="cccc" />
      </g>
    </g>
  </g>
</svg>
