<?xml version="1.0" encoding="UTF-8" standalone="no"?>
<!-- Created with Inkscape (http://www.inkscape.org/) -->

<svg
   xmlns:dc="http://purl.org/dc/elements/1.1/"
   xmlns:cc="http://creativecommons.org/ns#"
   xmlns:rdf="http://www.w3.org/1999/02/22-rdf-syntax-ns#"
   xmlns:svg="http://www.w3.org/2000/svg"
   xmlns="http://www.w3.org/2000/svg"
   xmlns:xlink="http://www.w3.org/1999/xlink"
   xmlns:sodipodi="http://sodipodi.sourceforge.net/DTD/sodipodi-0.dtd"
   xmlns:inkscape="http://www.inkscape.org/namespaces/inkscape"
   width="744.09448819"
   height="1052.3622047"
   id="svg2"
   version="1.1"
   inkscape:version="0.47pre4 r22446"
   sodipodi:docname="New document 1">
  <defs
     id="defs4">
    <linearGradient
       inkscape:collect="always"
       id="linearGradient3636">
      <stop
         style="stop-color:#2b0000;stop-opacity:1;"
         offset="0"
         id="stop3638" />
      <stop
         style="stop-color:#803300;stop-opacity:1"
         offset="1"
         id="stop3640" />
    </linearGradient>
    <linearGradient
       inkscape:collect="always"
       id="linearGradient3619">
      <stop
         style="stop-color:#ff0000;stop-opacity:1;"
         offset="0"
         id="stop3621" />
      <stop
         style="stop-color:#ffaaaa;stop-opacity:1"
         offset="1"
         id="stop3623" />
    </linearGradient>
    <inkscape:perspective
       sodipodi:type="inkscape:persp3d"
       inkscape:vp_x="0 : 526.18109 : 1"
       inkscape:vp_y="0 : 1000 : 0"
       inkscape:vp_z="744.09448 : 526.18109 : 1"
       inkscape:persp3d-origin="372.04724 : 350.78739 : 1"
       id="perspective10" />
    <linearGradient
       inkscape:collect="always"
       xlink:href="#linearGradient3619"
       id="linearGradient3625"
       x1="325"
       y1="382.36218"
       x2="348.5"
       y2="441.36218"
       gradientUnits="userSpaceOnUse" />
    <linearGradient
       inkscape:collect="always"
       xlink:href="#linearGradient3636"
       id="linearGradient3642"
       x1="376.5"
       y1="422.11218"
       x2="386"
       y2="488.36218"
       gradientUnits="userSpaceOnUse" />
  </defs>
  <sodipodi:namedview
     id="base"
     pagecolor="#ffffff"
     bordercolor="#666666"
     borderopacity="1.0"
     inkscape:pageopacity="0.0"
     inkscape:pageshadow="2"
     inkscape:zoom="2.8284271"
     inkscape:cx="385.73673"
     inkscape:cy="629.99661"
     inkscape:document-units="px"
     inkscape:current-layer="layer1"
     showgrid="false"
     inkscape:window-width="768"
     inkscape:window-height="951"
     inkscape:window-x="0"
     inkscape:window-y="25"
     inkscape:window-maximized="1" />
  <metadata
     id="metadata7">
    <rdf:RDF>
      <cc:Work
         rdf:about="">
        <dc:format>image/svg+xml</dc:format>
        <dc:type
           rdf:resource="http://purl.org/dc/dcmitype/StillImage" />
        <dc:title></dc:title>
      </cc:Work>
    </rdf:RDF>
  </metadata>
  <g
     inkscape:label="Layer 1"
     inkscape:groupmode="layer"
     id="layer1">
    <path
       style="fill:none;stroke:#000000;stroke-width:1.86513329;stroke-linecap:butt;stroke-linejoin:miter;stroke-miterlimit:4;stroke-opacity:1;stroke-dasharray:none"
       d="m 276.60763,437.69117 c -0.89836,-0.053 -0.21448,0.78251 -0.45348,1.06251 -0.10688,0.12522 -0.34659,-0.12522 -0.45346,0 -0.10689,0.12522 0.10687,0.40604 0,0.53125 -0.10689,0.12522 -0.3466,-0.12521 -0.45348,0 -0.10688,0.12522 0.10688,0.40604 0,0.53126 -0.10688,0.12522 -0.3466,-0.12522 -0.45348,0 -0.10688,0.12522 0.0676,0.37287 0,0.53125 -0.0955,0.224 -0.35786,0.30726 -0.45347,0.53125 -0.0676,0.1584 0.10689,0.40605 0,0.53127 -0.10687,0.12521 -0.34658,-0.12522 -0.45347,0 -0.21376,0.25042 0.1352,0.74572 0,1.0625 -0.0955,0.22401 -0.35787,0.30726 -0.45347,0.53126 -0.13519,0.31676 0.1352,0.74572 0,1.06251 -0.0955,0.22399 -0.35787,0.30725 -0.45348,0.53125 -0.0597,0.13969 0,1.84721 0,2.12501 0,0.25049 -0.0206,2.63221 0,2.65628 0.10689,0.12521 0.3466,-0.12522 0.45348,0 0.22673,0.26562 -0.22673,1.32813 0,1.59377 0.10688,0.12521 0.34659,-0.12523 0.45347,0 0.10689,0.12521 -0.0676,0.37285 0,0.53124 0.0603,0.14106 1.24002,1.52323 1.36042,1.59377 0.1352,0.0791 0.31827,-0.0791 0.45348,0 0.19119,0.112 0.26226,0.41925 0.45346,0.53126 0.0238,0.0139 1.33668,0.0139 1.36043,0 0.19119,-0.11201 0.26226,-0.41926 0.45346,-0.53126 0.1352,-0.0791 0.31827,0.0791 0.45347,0 1.50398,-1.76195 -0.42753,0.25043 0.90694,-0.53126 0.6057,-0.35478 0.30124,-0.70771 0.90695,-1.06251 0.13519,-0.0791 0.3023,0 0.45348,0 0.15115,0 0.45346,-0.17707 0.45346,0 0,0.1771 -0.31828,-0.0791 -0.45346,0 -0.19122,0.11201 -0.30233,0.35418 -0.45348,0.53126 -0.15116,0.17709 -0.35788,0.30726 -0.45347,0.53125 -0.1352,0.31678 0.21376,0.81208 0,1.06252 -0.10689,0.12521 -0.3466,-0.12522 -0.45348,0 -0.0182,0.0213 0,1.92992 0,2.12502 0,0.3695 -0.0819,2.46416 0,2.65626 0.0955,0.22401 0.35787,0.30726 0.45348,0.53127 0.18138,0.425 -0.18139,1.16875 0,1.59375 0.0955,0.224 0.35787,0.30726 0.45347,0.53125 0.0676,0.15839 -0.0676,0.37287 0,0.53126 0.0955,0.224 0.35786,0.30726 0.45348,0.53125 0.0676,0.15839 -0.10689,0.40604 0,0.53126 0.10687,0.12522 0.34657,-0.12522 0.45346,0 0.10688,0.12522 -0.10689,0.40604 0,0.53126 0.10688,0.12521 0.34659,-0.12522 0.45347,0 0.10688,0.12521 -0.10688,0.40603 0,0.53124 0.10688,0.12523 0.34659,-0.12521 0.45348,0 0.10687,0.12523 -0.10689,0.40605 0,0.53126 0.10687,0.12521 0.3023,0 0.45346,0 0.15116,0 0.30232,0 0.45348,0 0.3154,0 2.10336,0.0961 2.26736,0 0.38239,-0.224 0.52453,-0.8385 0.90694,-1.0625 0.13519,-0.0791 0.34659,0.12521 0.45347,0 0.21376,-0.25045 -0.13521,-0.74574 0,-1.06252 0.0955,-0.22399 0.35786,-0.30725 0.45348,-0.53125 0.18138,-0.425 -0.18139,-1.16876 0,-1.59376 0.18435,-0.43196 0.71933,-0.43956 0.45346,-1.0625 -0.18437,-0.43198 -0.71934,-0.43957 -0.45346,-1.06252 0.0955,-0.224 0.3023,-0.70833 0.45346,-0.53125 0.15116,0.17708 -0.35787,0.30725 -0.45346,0.53125 -0.13521,0.31677 0.21376,0.81208 0,1.06252 -0.60464,0.70834 -0.45348,-0.88543 -0.45348,0.53124 0,1.24589 0.10688,-0.25043 -0.45347,1.06251 -0.0899,0.21065 0.0927,1.48515 0,1.59376 -0.10689,0.12523 -0.3466,-0.12521 -0.45348,0 -0.0147,0.0171 0,1.46493 0,1.59376 0,0.88544 0,1.77086 0,2.65628 0,0.17708 -0.10688,0.40603 0,0.53125 0.10688,0.12522 0.34659,-0.12522 0.45348,0 0.0927,0.10861 -0.0899,1.38313 0,1.59377 0.1912,0.44799 0.71573,0.61452 0.90695,1.06251 0.0676,0.15839 -0.0676,0.37286 0,0.53124 0.0955,0.22401 0.3023,0.35418 0.45346,0.53127 0.15116,0.17709 0.26227,0.41925 0.45347,0.53126 0.11924,0.0698 1.57676,0 1.81389,0 0.16654,0 1.79563,0.0213 1.81389,0 0.10687,-0.12523 -0.0676,-0.37287 0,-0.53126 0.94361,-2.21096 -0.0313,0.56793 0.90694,-0.53127 0.10687,-0.1252 -0.10689,-0.40603 0,-0.53124 0.10687,-0.12523 0.34659,0.12521 0.45347,0 0.10688,-0.12523 -0.10688,-0.40604 0,-0.53126 0.10688,-0.12521 0.34659,0.12522 0.45348,0 0.10687,-0.12521 -0.0676,-0.37286 0,-0.53125 0.19119,-0.44798 0.71573,-0.61452 0.90693,-1.06252 0.0676,-0.15839 -0.10688,-0.40603 0,-0.53125 0.10688,-0.12522 0.34659,0.12522 0.45348,0 0.10688,-0.12522 -0.10689,-0.40603 0,-0.53125 0.10688,-0.12522 0.34658,0.12522 0.45346,0 0.1069,-0.12522 -0.0676,-0.37287 0,-0.53125 0.0956,-0.22401 0.45348,-0.28083 0.45348,-0.53126 0,-0.17707 -0.34658,-0.12522 -0.45348,0 -0.10688,0.12523 0.15116,0.53126 0,0.53126 -0.15116,0 0.15116,-0.53126 0,-0.53126 -0.75199,0 -0.31795,0.74502 -0.45346,1.06251 -0.0956,0.22401 -0.35787,0.30725 -0.45348,0.53125 -0.66724,1.56339 1.05051,-0.69944 -0.45347,1.06252 -0.15116,0.17708 -0.35786,0.30724 -0.45346,0.53125 -0.0597,0.13968 0,1.84722 0,2.12502 0,0.17709 -0.10689,0.40603 0,0.53126 0.10687,0.12521 0.34657,-0.12523 0.45346,0 0.22674,0.26562 -0.22674,1.32812 0,1.59375 0.10688,0.12522 0.34659,-0.12522 0.45347,0 0.21377,0.25044 -0.1352,0.74573 0,1.06252 0.0956,0.22399 0.30231,0.35417 0.45348,0.53125 0.15115,0.17708 0.26226,0.41925 0.45346,0.53125 0.11924,0.0698 1.57676,0 1.81389,0 0.10997,0 1.34584,0.0171 1.36041,0 0.1069,-0.12522 -0.10688,-0.40603 0,-0.53125 0.21377,-0.25044 0.69318,0.25042 0.90695,0 0.10689,-0.12522 -0.10688,-0.40605 0,-0.53125 0.10689,-0.12522 0.34659,0.1252 0.45348,0 0.10688,-0.12522 -0.0676,-0.37287 0,-0.53127 0.0956,-0.22399 0.35786,-0.30724 0.45346,-0.53125 0.0649,-0.15204 0,-2.37247 0,-2.65628 0,-0.17707 -0.10689,-0.40603 0,-0.53124 0.10689,-0.12523 0.34659,0.12521 0.45347,0 0.10689,-0.12523 0.10689,-0.40604 0,-0.53126 -0.10688,-0.12521 -0.34658,0.12522 -0.45347,0 -0.24937,-0.29214 0.4395,-2.12502 -0.45346,-2.12502 -0.15118,0 0,0.35418 0,0.53125 0,0.17711 0,0.35419 0,0.53127 0,0.70834 0,1.41668 0,2.125 0,0.34901 -0.0533,2.00011 0,2.12503 0.0676,0.15839 0.34657,-0.12522 0.45346,0 0.0927,0.1086 -0.0898,1.38313 0,1.59377 0.0956,0.22399 0.35787,0.30725 0.45347,0.53125 0.1352,0.31677 -0.21377,0.81206 0,1.0625 0.10689,0.12522 0.34659,-0.12521 0.45348,0 0.21376,0.25044 -0.21377,0.81209 0,1.06252 0.10688,0.12521 0.34658,-0.12522 0.45346,0 0.1069,0.12521 -0.10688,0.40604 0,0.53125 0.1069,0.12522 0.34659,-0.12521 0.45348,0 0.93826,1.09919 -1.43377,-0.043 0.45347,1.0625 0.1352,0.0791 0.34659,-0.12521 0.45348,0 0.10688,0.12523 -0.10689,0.40604 0,0.53126 0.10688,0.12522 0.31826,-0.0791 0.45346,0 0.1912,0.112 0.26227,0.41926 0.45347,0.53126 0.1352,0.0791 0.30232,0 0.45348,0 0.15116,0 0.34658,0.12521 0.45346,0 0.1069,-0.12522 -0.10688,-0.40604 0,-0.53126 0.21377,-0.25043 0.63656,0.15839 0.90695,0 0.19119,-0.11201 0.3023,-0.35416 0.45348,-0.53126 0.15116,-0.17707 0.35786,-0.30726 0.45346,-0.53124 0.0676,-0.15839 -0.0676,-0.37287 0,-0.53126 0.0956,-0.224 0.35787,-0.30726 0.45347,-0.53125 0.082,-0.19212 0,-2.28677 0,-2.65627 0,-0.36952 0.082,-2.46416 0,-2.65627 -0.0955,-0.22401 -0.35786,-0.30727 -0.45347,-0.53126 -0.1355,-0.3175 0.29852,-1.06251 -0.45346,-1.06251 -0.15118,0 0,0.35417 0,0.53124 0,0.35418 0,0.70836 0,1.06253 0,0.17708 0,0.35417 0,0.53124 0,0.17709 -0.10689,0.40604 0,0.53126 0.10688,0.12521 0.34657,-0.12522 0.45346,0 0.10689,0.12521 0,0.35417 0,0.53125 0,0.17709 0,0.35418 0,0.53125 0,0.88544 0,1.77086 0,2.65628 0,0.17708 0,0.35417 0,0.53126 0,0.17709 -0.0676,0.37286 0,0.53125 0.0956,0.224 0.35787,0.30725 0.45347,0.53126 0.1352,0.31677 -0.21376,0.81207 0,1.0625 0.10689,0.12522 0.34659,-0.12522 0.45348,0 0.10688,0.12522 -0.0676,0.37287 0,0.53126 0.0614,0.1439 0.84552,0.9186 0.90694,1.06251 0.0676,0.15839 -0.10689,0.40603 0,0.53125 0.10688,0.12522 0.34659,-0.12522 0.45347,0 0.10689,0.12522 -0.10688,0.40603 0,0.53125 0.21376,0.25044 0.69318,-0.25043 0.90694,0 0.10689,0.12522 -0.10689,0.40604 0,0.53126 0.10689,0.12521 0.30231,0 0.45347,0 0.86951,0 0.70206,0.24002 1.36042,-0.53126 0.15116,-0.17707 0.35787,-0.30726 0.45347,-0.53125 0,-1.41668 -0.15116,0.17709 0.45348,-0.53125 0.10688,-0.12522 -0.10689,-0.40605 0,-0.53126 0.10688,-0.12521 0.34657,0.12521 0.45346,0 0.10689,-0.12521 -0.10689,-0.40604 0,-0.53125 0.93826,-1.09919 -0.0367,1.6797 0.90695,-0.53126 0.0676,-0.15839 -0.0676,-0.37287 0,-0.53126 0.0614,-0.1439 0.84552,-0.9186 0.90694,-1.0625 0.0676,-0.15839 -0.10689,-0.40604 0,-0.53125 0.10688,-0.12522 0.34659,0.12521 0.45347,0 0.10689,-0.12522 -0.0676,-0.37288 0,-0.53126 0.0956,-0.22399 0.35786,-0.30725 0.45348,-0.53126 0.0676,-0.15838 -0.10689,-0.40603 0,-0.53125 0.10688,-0.12522 0.34657,0.12522 0.45346,0 0.10689,-0.12522 -0.0676,-0.37287 0,-0.53125 0.0955,-0.224 0.35787,-0.30726 0.45347,-0.53125 0.0676,-0.15839 -0.0676,-0.37287 0,-0.53127 0.0955,-0.22399 0.45348,-0.28081 0.45348,-0.53125 0,-0.17708 -0.45348,0.17709 -0.45348,0 0,-0.17708 0.45348,-0.17708 0.45348,0 0,1.10547 -0.63593,0.21377 -0.90695,0.53125 -0.10689,0.12523 0.10689,0.40605 0,0.53127 -0.10689,0.1252 -0.34658,-0.12522 -0.45346,0 -0.10689,0.1252 0.0676,0.37286 0,0.53125 -0.94362,2.21095 0.0313,-0.56794 -0.90695,0.53125 -0.10689,0.12522 0.0676,0.37287 0,0.53125 -0.0956,0.22401 -0.35787,0.30727 -0.45347,0.53126 -0.0676,0.15838 0.0676,0.37286 0,0.53126 -0.0956,0.22399 -0.35787,0.30725 -0.45347,0.53125 -0.0898,0.21064 0.0927,1.48515 0,1.59376 -0.10689,0.12522 -0.34659,-0.12522 -0.45348,0 -0.10688,0.12522 -0.10688,0.40604 0,0.53126 0.10689,0.12521 0.34659,-0.12522 0.45348,0 0.10688,0.12521 0,0.35418 0,0.53125 0,0.1771 0,0.35418 0,0.53126 0,0.23926 -0.069,1.43209 0,1.59376 0.0956,0.224 0.35786,0.30726 0.45347,0.53125 0.0676,0.15839 -0.10689,0.40604 0,0.53126 0.10689,0.12521 0.31828,-0.0791 0.45347,0 1.12072,0.65647 -0.15652,0.53125 0.90695,0.53125 1.06346,0 -0.21377,0.12522 0.90693,-0.53125 0.24601,-0.1441 1.68982,0.14536 1.81389,0 0.10689,-0.12522 -0.10688,-0.40604 0,-0.53126 0.10689,-0.12521 0.34659,0.12522 0.45348,0 0.10688,-0.12521 -0.10689,-0.40604 0,-0.53125 1.20926,0 -0.15117,0.17708 0.45346,-0.53126 0.10689,-0.12522 0.34659,0.12522 0.45347,0 0.21378,-0.25043 -0.13519,-0.74573 0,-1.0625 0.0955,-0.22401 0.35788,-0.30726 0.45348,-0.53126 0.0676,-0.1584 -0.10689,-0.40604 0,-0.53125 0.10688,-0.12522 0.34658,0.12521 0.45347,0 0.22674,-0.26564 -0.22673,-1.32814 0,-1.59376 0.10689,-0.12523 0.34658,0.12521 0.45347,0 0.1629,-0.19084 -0.14669,-1.78132 0,-2.12503 0.0676,-0.15838 0.34659,0.12522 0.45347,0 0.12408,-0.14536 -0.12299,-1.83681 0,-2.12502 0.0956,-0.22399 0.35786,-0.30724 0.45348,-0.53125 0.13519,-0.31677 -0.30232,-1.06251 0,-1.06251 0.15116,0 0.0676,0.37287 0,0.53126 -0.56036,1.31294 -0.45348,-0.18337 -0.45348,1.0625 0,1.2459 0.10689,-0.25042 -0.45347,1.06252 -0.0585,0.13737 0,2.81097 0,3.18753 0,0.17708 0.10688,0.40603 0,0.53124 -0.10689,0.12523 -0.34658,-0.12521 -0.45347,0 -0.10689,0.12523 -0.10689,0.40604 0,0.53126 0.10689,0.12522 0.34658,-0.12522 0.45347,0 0.10913,0.12784 -0.10912,1.99719 0,2.12502 0.10688,0.12522 0.34659,-0.12522 0.45347,0 0.10689,0.12522 -0.10688,0.40603 0,0.53125 0.10689,0.12522 0.3466,-0.12522 0.45348,0 0.10688,0.12522 -0.10688,0.40604 0,0.53126 0.0206,0.0241 2.05355,0 2.26735,0 0.16654,0 1.79564,0.0213 1.81388,0 0.15103,-0.17694 -0.15102,-0.88558 0,-1.06251 0.10689,-0.12522 0.3466,0.12522 0.45348,0 0.10688,-0.12522 -0.0676,-0.37286 0,-0.53125 0.0955,-0.22401 0.35787,-0.30726 0.45347,-0.53126 0.0676,-0.1584 -0.10687,-0.40604 0,-0.53125 0.10689,-0.12522 0.34659,0.12521 0.45347,0 0.21377,-0.25043 -0.13519,-0.74574 0,-1.06252 0.0956,-0.22399 0.35788,-0.30726 0.45347,-0.53124 0.0676,-0.15839 -0.0676,-0.37287 0,-0.53126 0.0956,-0.224 0.35788,-0.30726 0.45348,-0.53125 0.12092,-0.28333 -0.12093,-0.77918 0,-1.06252 0.0956,-0.22399 0.35787,-0.30726 0.45346,-0.53125 0.0676,-0.15839 -0.10688,-0.40603 0,-0.53125 0.10689,-0.12522 0.3466,0.12522 0.45347,0 0.21378,-0.25044 -0.13518,-0.74573 0,-1.06252 0.0956,-0.22399 0.35789,-0.30724 0.45348,-0.53125 0.0676,-0.15838 -0.10688,-0.40604 0,-0.53125 0.10688,-0.12522 0.45347,-0.17708 0.45347,0 0,0.25044 -0.35787,0.30726 -0.45347,0.53125 -0.1352,0.31677 0.21377,0.81208 0,1.06252 -0.10688,0.1252 -0.34659,-0.12522 -0.45348,0 -0.12407,0.14536 0.12301,1.83682 0,2.12501 -0.0955,0.224 -0.35786,0.30725 -0.45347,0.53126 -0.0676,0.15839 0,0.35417 0,0.53125 0,0.17708 -0.10688,0.40603 0,0.53126 0.10689,0.12521 0.3466,-0.12523 0.45347,0 0.15103,0.17692 -0.15102,0.88557 0,1.0625 0.10689,0.12522 0.3466,-0.12522 0.45348,0 0.10688,0.12522 -0.10688,0.40604 0,0.53126 0.10688,0.12521 0.31828,-0.0791 0.45347,0 0.19121,0.11199 0.26227,0.41926 0.45347,0.53125 0.0505,0.0296 2.21675,0.0296 2.26736,0 0.60571,-0.3548 0.30124,-0.70771 0.90694,-1.06251 0.13521,-0.0791 0.3466,0.12522 0.45347,0 0.10689,-0.12522 -0.0676,-0.37287 0,-0.53126 0.0956,-0.22399 0.35788,-0.30726 0.45348,-0.53124 0.0676,-0.15839 -0.0676,-0.37287 0,-0.53126 0.0956,-0.224 0.35787,-0.30726 0.45346,-0.53125 0.069,-0.16168 0,-1.35451 0,-1.59377 0,-0.2778 0.0597,-1.98533 0,-2.12502 -0.56034,-1.31294 -0.45346,0.18338 -0.45346,-1.06251 0,-0.17707 0,-0.35416 0,-0.53124 0,-0.17709 0.0676,-0.37287 0,-0.53126 -0.0955,-0.224 -0.60463,-0.35417 -0.45348,-0.53127 0.15116,-0.17707 0.45348,0.28083 0.45348,0.53127 0,0.0312 -1.58271,-0.26042 -0.90695,0.53126 0.10688,0.12521 0.45347,-0.17709 0.45347,0 0,0.17708 -0.45347,-0.17709 -0.45347,0 0,0.17129 0.78097,0.76731 0.90695,1.0625 0.13519,0.31678 -0.21377,0.81208 0,1.0625 0.10688,0.12523 0.34658,-0.12521 0.45346,0 0.21378,0.25044 -0.13519,0.74574 0,1.06252 0.0956,0.224 0.35788,0.30724 0.45347,0.53125 0.31276,0.73279 -0.54917,0.4752 0.45348,1.06251 0.1352,0.0791 0.3466,-0.12523 0.45347,0 0.93825,1.09919 -1.43377,-0.043 0.45347,1.06251 0.0505,0.0296 2.21675,0.0296 2.26736,0 1.08833,-0.6375 -0.18139,-0.42501 0.90694,-1.06251 0.13521,-0.0791 0.3466,0.12522 0.45347,0 0.21377,-0.25043 -0.21376,-0.81207 0,-1.06251 0.10689,-0.12522 0.3466,0.12522 0.45348,0 0.10688,-0.12522 -0.0676,-0.37287 0,-0.53125 0.0956,-0.224 0.35787,-0.30726 0.45347,-0.53125 0.0676,-0.15839 -0.0676,-0.37287 0,-0.53127 0.0955,-0.22399 0.35787,-0.30724 0.45347,-0.53125 0.0676,-0.15838 -0.0676,-0.37286 0,-0.53125 0.0955,-0.224 0.35788,-0.30726 0.45348,-0.53126 0.13519,-0.31677 -0.13521,-0.74572 0,-1.0625 0.0955,-0.224 0.35786,-0.30726 0.45347,-0.53127 0.18139,-0.42499 -0.18138,-1.16875 0,-1.59375 0.0955,-0.22401 0.35787,-0.30726 0.45347,-0.53125 0.1352,-0.31679 -0.30232,-1.06252 0,-1.06252 0.15116,0 0,0.35418 0,0.53125 0,0.17711 0,0.35419 0,0.53127 0,0.17708 0.0676,0.37287 0,0.53125 -0.0956,0.22399 -0.35788,0.30726 -0.45347,0.53125 -0.0676,0.15839 0,0.35418 0,0.53126 0,0.17708 0,0.35417 0,0.53124 0,0.88544 0,1.77086 0,2.65628 0,0.17709 0,0.35418 0,0.53125 0,0.17709 -0.0676,0.37288 0,0.53127 0.0955,0.22399 0.35787,0.30725 0.45347,0.53125 0.0676,0.15838 -0.0676,0.37286 0,0.53125 0.0955,0.22399 0.35787,0.30726 0.45347,0.53125 0.0676,0.15839 -0.10688,0.40603 0,0.53126 0.10688,0.12522 0.31827,-0.0791 0.45348,0 1.1207,0.65647 -0.15654,0.53126 0.90693,0.53126 0.3154,0 2.10337,0.0961 2.26737,0 0.19119,-0.112 0.26226,-0.41926 0.45346,-0.53126 0.1352,-0.0791 0.30231,0 0.45347,0 0.15116,-0.17708 0.26228,-0.41926 0.45348,-0.53126 0.13519,-0.0791 0.3023,0 0.45347,0 0.15115,-0.17708 0.26226,-0.41924 0.45347,-0.53125 0.1352,-0.0791 0.34659,0.12522 0.45347,0 0.10688,-0.12522 -0.10688,-0.40603 0,-0.53125 0.10688,-0.12522 0.34659,0.12522 0.45348,0 0.10687,-0.12522 -0.10689,-0.40605 0,-0.53125 0.10687,-0.12522 0.34657,0.1252 0.45346,0 0.0182,-0.0213 0,-1.92992 0,-2.12503 0,-0.17707 0,-0.35416 0,-0.53124 0,-0.17709 0.10688,-0.40605 0,-0.53126 -0.10689,-0.12522 -0.34659,0.12521 -0.45346,0 -0.10689,-0.12522 0.0676,-0.37288 0,-0.53127 -0.0956,-0.22399 -0.35789,-0.30724 -0.45348,-0.53124 -0.0676,-0.15839 0.0676,-0.37287 0,-0.53126 -0.56036,-1.31294 -0.45347,0.18338 -0.45347,-1.0625 0,-1.41669 0.15116,0.17708 -0.45347,-0.53127 -0.10688,-0.1252 0,-0.70832 0,-0.53125 0,0.35418 0,0.70836 0,1.06252 0,0.17708 -0.0676,0.37287 0,0.53125 0.0955,0.22399 0.35787,0.30726 0.45347,0.53125 0.123,0.28821 -0.12408,1.97966 0,2.12503 0.10687,0.12521 0.34659,-0.12523 0.45347,0 0.21376,0.25042 -0.21377,0.81206 0,1.0625 0.10688,0.12521 0.34659,-0.12522 0.45348,0 0.10687,0.12521 -0.10689,0.40603 0,0.53125 0.10687,0.12522 0.31826,-0.0791 0.45346,0 0.1912,0.112 0.26227,0.41926 0.45348,0.53125 0.13519,0.0791 0.34658,-0.12521 0.45347,0 0.10687,0.12523 -0.10689,0.40605 0,0.53127 0.10687,0.1252 0.3023,0 0.45347,0 0.20421,0 1.22239,0.0808 1.36042,0 0.19119,-0.112 0.26226,-0.41926 0.45346,-0.53127 0.1352,-0.0791 0.34659,0.12523 0.45348,0 0.21376,-0.25042 -0.21378,-0.81206 0,-1.0625 0.10687,-0.12522 0.34658,0.12521 0.45347,0 0.10688,-0.12522 -0.0676,-0.37287 0,-0.53126 1.50397,-1.76194 -0.21377,0.50087 0.45347,-1.0625 0.0955,-0.224 0.35787,-0.30726 0.45347,-0.53127 0.0676,-0.15838 -0.0676,-0.37285 0,-0.53124 0.0955,-0.224 0.35787,-0.30726 0.45347,-0.53126 0.0676,-0.15839 -0.0676,-0.37286 0,-0.53125 0.0955,-0.22401 0.38587,-0.29368 0.45348,-0.53125 0.0955,-0.33601 -0.0956,-0.72651 0,-1.06252 0.56034,-1.96941 0.45346,0.64758 0.45346,-1.0625 0,-1.23959 0,-2.47919 0,-3.71879 0,-0.17707 0,-0.35416 0,-0.53125 0,-0.17708 -0.15116,-0.53126 0,-0.53126 0.15116,0 0,0.35418 0,0.53126 0,1.24589 0.10688,-0.25043 -0.45346,1.06251 -0.069,0.16168 0,1.3545 0,1.59376 0,1.06251 0,2.12502 0,3.18752 0,0.17711 0,0.35419 0,0.53127 0,0.17708 -0.0676,0.37287 0,0.53125 0.0955,0.22399 0.35786,0.30726 0.45346,0.53125 0.0676,0.15839 -0.10688,0.40603 0,0.53126 0.10688,0.12521 0.31828,-0.0791 0.45348,0 0.1912,0.112 0.26227,0.41926 0.45347,0.53124 0.13519,0.0791 0.3023,0 0.45347,0 0.15116,0 0.31827,0.0791 0.45347,0 0.1912,-0.11198 0.26227,-0.41924 0.45347,-0.53124 0.2704,-0.15839 0.63655,0.15839 0.90694,0 1.50398,-1.76195 -0.42753,0.25043 0.90695,-0.53126 0.19119,-0.112 0.26226,-0.41925 0.45347,-0.53125 1.20926,0 -0.15117,0.17709 0.45347,-0.53125 0.10688,-0.12523 0.34659,0.12521 0.45347,0 0.10689,-0.12523 -0.10688,-0.40605 0,-0.53127 0.10689,-0.1252 0.34659,0.12522 0.45348,0 0.21376,-0.25042 -0.13521,-0.74573 0,-1.0625 0.0956,-0.22399 0.35786,-0.30726 0.45346,-0.53125 0.0253,-0.0593 0.0253,-2.59698 0,-2.65627 -0.0956,-0.224 -0.35786,-0.30727 -0.45346,-0.53126 -0.0676,-0.15839 0.10688,-0.40603 0,-0.53126 -0.10689,-0.12521 -0.34659,0.12523 -0.45348,0 -0.10688,-0.12521 0.10689,-0.40604 0,-0.53125 -0.10688,-0.12521 -0.34659,0.12521 -0.45347,0 -0.10689,-0.12521 0.10688,-0.40604 0,-0.53126 -0.10689,-0.12521 -0.34658,0.12522 -0.45347,0 -0.10688,-0.12521 0.10689,-0.40603 0,-0.53125 -0.10688,-0.12522 -0.31827,0.0791 -0.45347,0 -1.88724,-1.10547 0.48478,0.0367 -0.45347,-1.06251 -0.10689,-0.12521 -0.34658,0.12522 -0.45348,0 -0.10688,-0.12521 0.1069,-0.40604 0,-0.53124 -0.10688,-0.12523 -0.56035,-0.12523 -0.45346,0 0.23899,0.28 0.6257,0.3116 0.90694,0.53124 0.1922,0.15013 1.2666,1.37396 1.36041,1.59376 0.1352,0.31679 -0.21377,0.81208 0,1.06251 0.10688,0.12523 0.34659,-0.12521 0.45347,0 0.10689,0.12523 -0.10688,0.40604 0,0.53126 0.10689,0.12522 0.34659,-0.12522 0.45348,0 0.10688,0.12522 -0.10689,0.40604 0,0.53126 0.10688,0.12521 0.34658,-0.12522 0.45346,0 0.1069,0.12521 -0.10688,0.40603 0,0.53124 0.1069,0.12523 0.34659,-0.12521 0.45348,0 0.10688,0.12523 -0.0676,0.37287 0,0.53126 0.0956,0.224 0.30231,0.35418 0.45347,0.53126 0.15115,0.17709 0.26226,0.41925 0.45347,0.53125 0.13519,0.0791 0.34658,-0.12522 0.45347,0 0.10688,0.12523 -0.10689,0.40604 0,0.53126 0.10688,0.12521 0.34659,0.12521 0.45347,0 0.10689,-0.12522 -0.10688,-0.40603 0,-0.53126 0.21376,-0.25043 0.63655,0.15839 0.90694,0 0.1912,-0.112 0.26227,-0.41926 0.45348,-0.53125 1.20925,0 -0.15117,0.17709 0.45347,-0.53126 0.10689,-0.12521 0.34659,0.12521 0.45347,0 0.10689,-0.12521 -0.10688,-0.40603 0,-0.53126 0.93825,-1.09918 -0.0367,1.6797 0.90694,-0.53124 0.0676,-0.15839 -0.0676,-0.37287 0,-0.53126 0.0955,-0.224 0.35788,-0.30726 0.45348,-0.53126 0.12091,-0.28332 -0.12093,-0.77917 0,-1.06251 0.0956,-0.22399 0.35786,-0.30725 0.45346,-0.53125 0.1352,-0.31677 -0.13519,-0.74573 0,-1.06251 0.0956,-0.224 0.35787,-0.30726 0.45348,-0.53124 0.0676,-0.1584 0,-0.35419 0,-0.53127 0,-0.17708 0,-0.35416 0,-0.53125 0,-0.88542 0,-1.77083 0,-2.65627 0,-0.17709 -0.15117,-0.53126 0,-0.53126 0.15116,0 0,0.35417 0,0.53126 0,0.53126 0,1.06251 0,1.59376 0,1.2396 0,2.4792 0,3.71878 0,0.17709 -0.10689,0.40604 0,0.53125 0.10688,0.12522 0.34658,-0.12521 0.45347,0 0.10689,0.12522 -0.0676,0.37287 0,0.53126 0.0956,0.224 0.3023,0.35418 0.45347,0.53125 0.15117,0.1771 0.26227,0.41926 0.45347,0.53126 0.1352,0.0791 0.34659,-0.12522 0.45347,0 0.20155,0.23611 -0.3527,1.00348 0.45348,0.53126 0.19119,-0.11201 0.26226,-0.41925 0.45347,-0.53126 0.2704,-0.15839 0.63654,0.15839 0.90694,0 0.19119,-0.112 0.26227,-0.41926 0.45347,-0.53126 0.13519,-0.0791 0.31828,0.0791 0.45347,0 1.08833,-0.6375 -0.18139,-0.42501 0.90695,-1.06251 0.13518,-0.0791 0.34658,0.12522 0.45347,0 0.10689,-0.12521 -0.10689,-0.40603 0,-0.53125 0.10689,-0.12522 0.34658,0.12522 0.45347,0 0.10688,-0.12522 -0.0676,-0.37286 0,-0.53125 0.0956,-0.224 0.35787,-0.30726 0.45347,-0.53126 0.18139,-0.42501 -0.18139,-1.16876 0,-1.59376 0.18436,-0.43196 0.71934,-0.43956 0.45347,-1.06251 -0.0956,-0.224 -0.35787,-0.30726 -0.45347,-0.53125 -0.0676,-0.15839 0.10689,-0.40604 0,-0.53125 -0.10689,-0.12522 -0.34659,0.12521 -0.45347,0 -0.10689,-0.12522 0.0676,-0.37288 0,-0.53126 -0.1211,-0.28374 -1.12169,-1.31408 -1.36042,-1.59376 -0.2667,-0.31246 -1.60389,-2.00201 -1.81388,-2.12503 -0.13519,-0.0791 -0.31828,0.0791 -0.45347,0 -0.19121,-0.11199 -0.23971,-0.53124 -0.45347,-0.53124 -0.15116,0 -0.10689,0.40603 0,0.53124 0.10688,0.12523 0.34658,-0.12521 0.45347,0 0.10689,0.12523 -0.10689,0.40604 0,0.53126 0.10689,0.12521 0.31828,-0.0791 0.45347,0 0.1912,0.112 0.26228,0.41926 0.45347,0.53125 0.1352,0.0791 0.34659,-0.12521 0.45347,0 0.10689,0.12522 -0.10688,0.40605 0,0.53126 1.09815,0.64325 0.66795,0.25126 1.36042,1.06251 0.15116,0.17709 0.3023,0.35418 0.45347,0.53125 0.15116,0 0.34658,-0.12522 0.45347,0 0.10688,0.12522 -0.10689,0.40604 0,0.53126 0.10688,0.12521 0.34658,-0.12522 0.45347,0 0.10689,0.12521 -0.0676,0.37286 0,0.53126 0.0956,0.22399 0.35786,0.30724 0.45347,0.53125 0.0676,0.15839 -0.10688,0.40604 0,0.53125 0.10689,0.12522 0.31828,-0.0791 0.45347,0 1.08833,0.63751 -0.18139,0.425 0.90695,1.06251 0.13519,0.0791 0.34658,-0.12522 0.45347,0 0.10689,0.12521 -0.10689,0.40605 0,0.53125 0.0147,0.0171 1.25044,0 1.36041,0 1.20927,0 -0.15117,0.17708 0.45347,-0.53125 0.10688,-0.12522 0.34659,0.12521 0.45347,0 0.10689,-0.12522 -0.10688,-0.40603 0,-0.53125 0.10689,-0.12523 0.34659,0.12522 0.45348,0 0.21377,-0.25044 -0.21376,-0.81208 0,-1.06251 0.10688,-0.12522 0.34658,0.12521 0.45347,0 0.21377,-0.25043 -0.1352,-0.74573 0,-1.06251 0.0955,-0.224 0.35786,-0.30726 0.45347,-0.53126 0.0585,-0.13735 0,-2.81097 0,-3.18753 0,-0.12883 0.0147,-1.57667 0,-1.59375 -0.10689,-0.12522 -0.34658,0.12521 -0.45347,0 -0.10689,-0.12522 0,-0.35418 0,-0.53126 0,-0.17708 -0.10689,-0.40604 0,-0.53126 0.76041,-0.89084 0.36434,1.48934 0.45347,1.59377 0.10688,0.12522 0.34658,-0.12521 0.45347,0 0.0927,0.1086 -0.0898,1.38313 0,1.59376 0.0956,0.224 0.35786,0.30726 0.45347,0.53125 0.0898,0.21065 -0.0927,1.48516 0,1.59377 0.10689,0.12522 0.34658,-0.12522 0.45347,0 0.10688,0.12522 -0.0676,0.37286 0,0.53125 0.0956,0.224 0.30232,0.35417 0.45347,0.53126 0.15116,0.17708 0.26227,0.41925 0.45348,0.53126 0.0238,0.0139 1.33669,0.0139 1.36041,0 0.1912,-0.11201 0.26227,-0.41927 0.45347,-0.53126 0.1352,-0.0791 0.34659,0.12521 0.45347,0 0.10688,-0.12522 -0.10688,-0.40604 0,-0.53126 0.10688,-0.12522 0.3466,0.12522 0.45347,0 0.10689,-0.12522 -0.10687,-0.40603 0,-0.53125 0.10689,-0.12522 0.3466,0.12522 0.45348,0 0.10688,-0.12522 -0.10688,-0.40604 0,-0.53125 0.10688,-0.12522 0.31827,0.0791 0.45347,0 1.00265,-0.58732 0.14072,-0.32972 0.45347,-1.06252 0.0955,-0.22399 0.35787,-0.30725 0.45347,-0.53125 0.18139,-0.425 -0.18139,-1.16876 0,-1.59376 0.18437,-0.43197 0.71935,-0.43956 0.45347,-1.06251 -0.0955,-0.224 -0.35787,-0.30725 -0.45347,-0.53126 -0.0899,-0.21062 0.0927,-1.48514 0,-1.59375 -0.10688,-0.12522 -0.34659,0.1252 -0.45347,0 -0.10688,-0.12522 0.0676,-0.37287 0,-0.53127 -0.27208,-0.6375 -1.08833,-0.95625 -1.36042,-1.59376 -0.0676,-0.15838 0.10689,-0.40603 0,-0.53125 -0.10687,-0.12522 -0.45347,-0.17708 -0.45347,0 0,1.10547 0.63593,0.21377 0.90695,0.53125 0.10688,0.12523 -0.10688,0.40604 0,0.53126 0.10688,0.12521 0.3466,-0.12522 0.45347,0 0.10689,0.12521 -0.0676,0.37286 0,0.53125 0.0955,0.22401 0.35786,0.30725 0.45347,0.53125 0.0676,0.1584 -0.10688,0.40605 0,0.53127 0.10688,0.1252 0.34659,-0.12522 0.45347,0 0.10689,0.1252 -0.0676,0.37286 0,0.53125 0.0956,0.22399 0.35788,0.30725 0.45347,0.53125 0.0676,0.15839 -0.10687,0.40604 0,0.53125 0.10689,0.12522 0.34659,-0.12521 0.45347,0 0.10688,0.12522 -0.10688,0.40604 0,0.53126 0.10688,0.12521 0.30232,0 0.45347,0 0,0.17708 -0.10687,0.40604 0,0.53126 0.10689,0.12521 0.3466,-0.12522 0.45348,0 0.10688,0.12521 -0.0676,0.37286 0,0.53125 0.0956,0.224 0.30231,0.35418 0.45347,0.53126 0.15116,0.17708 0.26227,0.41925 0.45347,0.53124 0.1352,0.0791 0.31827,-0.0791 0.45347,0 0.1912,0.11201 0.23971,0.53126 0.45347,0.53126 0.15117,0 -0.10687,-0.40603 0,-0.53126 0.21378,-0.25043 0.69318,0.25044 0.90694,0 0.21377,-0.25043 -0.13518,-0.74572 0,-1.0625 0.0956,-0.224 0.35789,-0.30726 0.45348,-0.53125 0.0676,-0.15839 -0.0676,-0.37288 0,-0.53126 0.0956,-0.224 0.35787,-0.30725 0.45347,-0.53126 0.0676,-0.15839 -0.0676,-0.37286 0,-0.53125 0.0956,-0.224 0.35787,-0.30726 0.45347,-0.53125 0.0676,-0.15839 -0.0676,-0.37287 0,-0.53125 0.0955,-0.22401 0.35788,-0.30727 0.45347,-0.53127 0.0676,-0.15838 -0.0676,-0.37286 0,-0.53125 0.0955,-0.22399 0.35788,-0.30725 0.45347,-0.53125 0.0676,-0.15839 0,-0.35417 0,-0.53126 0,-0.35416 0,-0.70833 0,-1.0625 0,-1.2396 0,-2.47919 0,-3.71879 0,-0.17708 0,-0.35417 0,-0.53125 0,-0.17708 -0.10687,-0.40604 0,-0.53126 0.10689,-0.12521 0.34659,0.12522 0.45347,0 0.27102,-0.31747 -0.49014,-1.0625 0.45347,-1.0625 0.15116,0 0,0.35418 0,0.53125 0,0.70835 0,1.41668 0,2.12501 0,1.2459 0.10689,-0.25042 -0.45347,1.06251 -0.0192,0.0453 -0.0192,2.07974 0,2.12503 0.0956,0.22399 0.35788,0.30725 0.45347,0.53125 0.14252,0.33391 -0.1425,1.79112 0,2.12501 0.0956,0.224 0.35789,0.30726 0.45348,0.53127 0.13519,0.31677 -0.21376,0.81207 0,1.0625 0.10688,0.12522 0.3466,-0.12522 0.45347,0 0.10689,0.12522 -0.10687,0.40604 0,0.53125 0.10689,0.12522 0.30231,0 0.45347,0 0.15117,0 0.30232,0 0.45347,0 0.15116,0 0.30231,0 0.45347,0 0.15117,0 0.31828,0.0791 0.45347,0 0.19121,-0.11199 0.26228,-0.41925 0.45347,-0.53125 0.62551,-0.3664 0.40563,0.64338 0.90695,-0.53125 0.0676,-0.15839 -0.0676,-0.37287 0,-0.53125 0.0614,-0.14391 0.84553,-0.91861 0.90694,-1.06252 0.0597,-0.13968 0,-1.84721 0,-2.12501 0,-0.35418 0.0955,-0.72652 0,-1.06251 -0.0676,-0.23758 -0.35787,-0.30725 -0.45347,-0.53126 -0.1425,-0.3339 0.14252,-1.79111 0,-2.12502 -0.0955,-0.22399 -0.35787,-0.30725 -0.45347,-0.53125 -0.0676,-0.15839 0,-0.35416 0,-0.53126 -0.15116,-0.35416 -0.26599,-0.73303 -0.45347,-1.0625 -0.23715,-0.41674 -0.71574,-0.61452 -0.90695,-1.06251 -0.0676,-0.15839 0.10688,-0.40604 0,-0.53126 -0.10688,-0.12521 -0.45347,-0.17708 -0.45347,0 0,0.1649 1.24278,1.31815 1.36042,1.59377 0.0676,0.15839 -0.10688,0.40603 0,0.53125 0.10688,0.12522 0.3466,-0.12522 0.45347,0 0.10689,0.12522 -0.0676,0.37287 0,0.53125 0.27208,0.63751 1.08833,0.95626 1.36041,1.59376 0.0676,0.1584 -0.10687,0.40605 0,0.53127 0.10689,0.12521 0.34659,-0.12522 0.45347,0 0.10688,0.12521 -0.0676,0.37287 0,0.53124 0.0603,0.14106 1.24001,1.52324 1.36042,1.59376 0.1352,0.0791 0.34659,-0.1252 0.45347,0 0.10688,0.12523 -0.10688,0.40605 0,0.53127 0.10688,0.1252 0.30232,0 0.45347,0 0.20423,0 1.22241,0.0808 1.36042,0 0.12041,-0.0706 1.30022,-1.45271 1.36042,-1.59377 0.0676,-0.15839 -0.0676,-0.37287 0,-0.53126 0.0955,-0.22399 0.35787,-0.30725 0.45347,-0.53124 0.069,-0.16168 0,-1.35452 0,-1.59377 0,-0.17708 0,-0.35416 0,-0.53126 0,-0.17707 0.0676,-0.37286 0,-0.53125 -0.0955,-0.224 -0.35788,-0.30725 -0.45347,-0.53125 -0.18139,-0.42501 0.18138,-1.16877 0,-1.59377 -0.19121,-0.44798 -0.71575,-0.61451 -0.90694,-1.0625 -0.0676,-0.15839 0.10687,-0.40605 0,-0.53125 -0.10689,-0.12522 -0.3466,0.1252 -0.45348,0 -0.10688,-0.12522 0.10688,-0.40605 0,-0.53127 -0.10688,-0.12522 -0.31827,0.0791 -0.45348,0 -1.00265,-0.58731 -0.14071,-0.32971 -0.45347,-1.0625 -0.0955,-0.22401 -0.30231,-0.35417 -0.45347,-0.53126 -0.15115,-0.17707 -0.3023,-0.35416 -0.45347,-0.53124 -0.15116,-0.17709 -0.45347,-0.28084 -0.45347,-0.53127 0,-0.64405 0.56635,0.13224 0.90694,0.53127 0.15116,0.17708 0.26227,0.41925 0.45347,0.53124 0.1352,0.0791 0.34659,-0.12521 0.45347,0 0.10688,0.12523 -0.10688,0.40604 0,0.53126 0.10688,0.12521 0.3466,-0.12522 0.45348,0 0.10688,0.12521 -0.0676,0.37287 0,0.53125 0.0955,0.224 0.35788,0.30726 0.45348,0.53125 0.0676,0.15839 -0.10689,0.40605 0,0.53127 0.10687,0.1252 0.34659,-0.12522 0.45347,0 0.10688,0.1252 -0.0676,0.37286 0,0.53125 0.50132,1.17463 0.28144,0.16485 0.90694,0.53125 0.54416,0.31875 0.81625,1.27501 1.36041,1.59376 0.1352,0.0791 0.34659,-0.12521 0.45348,0 0.20152,0.23612 -0.35271,1.00348 0.45347,0.53126 0.19119,-0.112 0.26226,-0.41926 0.45347,-0.53126 0.13519,-0.0791 0.34658,0.12521 0.45347,0 0.10688,-0.12521 -0.0676,-0.37287 0,-0.53125 0.0955,-0.22399 0.35787,-0.30725 0.45347,-0.53126 0.0676,-0.15838 0,-0.35416 0,-0.53125 0,-0.17707 0,-0.35417 0,-0.53125 0,-0.88543 0,-1.77085 0,-2.65628 0,-0.17707 -0.0676,-0.37286 0,-0.53124 0.0955,-0.22401 0.35787,-0.30727 0.45347,-0.53127 0.0466,-0.10897 0.0639,-1.51883 0,-1.59376 -0.10689,-0.12521 -0.34659,0.12522 -0.45347,0 -0.10688,-0.12521 0,-0.35416 0,-0.53125 0,-0.17708 0,-0.35417 0,-0.53125 0,-0.12885 0.0147,-1.57669 0,-1.59377 -0.10688,-0.12522 -0.34659,0.12522 -0.45347,0 -0.21377,-0.25044 0.21376,-0.81208 0,-1.06251 -0.93825,-1.09919 0.0367,1.6797 -0.90694,-0.53126 -0.0676,-0.15839 0.10688,-0.40604 0,-0.53125 -0.10688,-0.12522 -0.45347,0.17709 -0.45347,0 0,-0.17708 0.45347,-0.17708 0.45347,0 0,0.17709 -0.45347,-0.17708 -0.45347,0 0,0.25044 0.35786,0.30726 0.45347,0.53125 0.0676,0.15839 -0.10688,0.40604 0,0.53126 0.10688,0.12522 0.34658,-0.12522 0.45347,0 0.10687,0.12522 0,0.35417 0,0.53126 0,0.53125 0,1.0625 0,1.59375 0,0.1771 0,0.35418 0,0.53127 0,0.17708 -0.0676,0.37286 0,0.53125 0.0955,0.22399 0.35787,0.30725 0.45347,0.53125 0.12092,0.28334 -0.12092,0.77918 0,1.0625 0.0955,0.22401 0.35787,0.30727 0.45347,0.53126 0.0676,0.1584 0,0.35418 0,0.53127 0.15116,0.17708 0.35787,0.30724 0.45347,0.53124 0.1352,0.31678 -0.21377,0.81207 0,1.06251 0.10687,0.12522 0.34659,-0.12522 0.45347,0 0.10688,0.12522 -0.10688,0.40603 0,0.53125 0.10688,0.12522 0.34659,-0.12522 0.45348,0 0.10687,0.12522 -0.10689,0.40605 0,0.53127 0.0453,0.0532 1.31506,0.0532 1.36041,0 0.10688,-0.12522 -0.10689,-0.40605 0,-0.53127 0.21376,-0.25042 0.63654,0.15839 0.90694,0 0.1912,-0.11199 0.30231,-0.35416 0.45347,-0.53125 0.15115,-0.17708 0.35788,-0.30726 0.45348,-0.53125 0.13519,-0.31678 -0.21377,-0.81208 0,-1.0625 0.10687,-0.12523 0.34659,0.1252 0.45347,0 0.21376,-0.25044 -0.13521,-0.74575 0,-1.06253 0.0955,-0.22399 0.35786,-0.30724 0.45347,-0.53124 0.0192,-0.0453 0.0192,-2.07973 0,-2.12503 -0.0956,-0.22399 -0.35788,-0.30725 -0.45347,-0.53125 -0.0899,-0.21063 0.0927,-1.48515 0,-1.59376 -0.10688,-0.12522 -0.3466,0.12522 -0.45347,0 -0.10689,-0.12522 0.0676,-0.37287 0,-0.53126 -0.0956,-0.22399 -0.30233,-0.35416 -0.45348,-0.53125 -0.15116,-0.17708 -0.30231,-0.35417 -0.45347,-0.53126 -0.15116,-0.17707 -0.30231,-0.35416 -0.45347,-0.53124 0,-0.17709 0.10688,-0.40604 0,-0.53126 -0.10688,-0.12522 -0.34659,0.12522 -0.45347,0 -0.10689,-0.12522 -0.10689,-0.40604 0,-0.53126 0.35449,-0.41529 0.78888,0.4621 0.90694,0.53126 1.20925,0 -0.15116,-0.17708 0.45347,0.53126 0.10688,0.12521 0.34659,-0.12523 0.45348,0 0.21376,0.25043 -0.13521,0.74572 0,1.0625 0.94361,2.21095 -0.0313,-0.56793 0.90694,0.53125 0.10687,0.12522 -0.10689,0.40604 0,0.53126 0.10687,0.12522 0.34658,-0.12522 0.45347,0 0.10688,0.12522 -0.10689,0.40604 0,0.53126 0.10688,0.12521 0.31827,-0.0791 0.45347,0 0.1912,0.11199 0.26227,0.41924 0.45347,0.53125 0.1352,0.0791 0.31828,-0.0791 0.45347,0 0.19121,0.112 0.26227,0.41925 0.45348,0.53125 0.0238,0.0139 1.33669,0.0139 1.36041,0 0.19119,-0.112 0.26226,-0.41925 0.45348,-0.53125 0.62549,-0.36639 0.40562,0.64338 0.90693,-0.53125 0.0676,-0.15839 -0.0676,-0.37287 0,-0.53126 0.0955,-0.224 0.35788,-0.30725 0.45348,-0.53126 0.1352,-0.31677 -0.13521,-0.74573 0,-1.06251 0.0956,-0.22399 0.35786,-0.30725 0.45347,-0.53124 0.0676,-0.15839 0,-0.35417 0,-0.53126 0,-0.17708 0.0676,-0.37287 0,-0.53126 -0.0956,-0.224 -0.35787,-0.30725 -0.45347,-0.53125 -0.18139,-0.425 0.18139,-1.16876 0,-1.59376 -0.0956,-0.224 -0.35789,-0.30726 -0.45348,-0.53126 -0.0676,-0.15839 0.0676,-0.37286 0,-0.53126 -0.0956,-0.22399 -0.35787,-0.30724 -0.45347,-0.53125 -0.0676,-0.15839 0.0676,-0.37287 0,-0.53125 -0.0955,-0.224 -0.35787,-0.30727 -0.45346,-0.53126 -0.13521,-0.31677 0.13518,-0.74572 0,-1.0625 -0.0955,-0.22401 -0.35789,-0.30726 -0.45348,-0.53127 -0.082,-0.1921 0,-2.28675 0,-2.65626 0,-0.17708 0.10688,-0.40604 0,-0.53126 -0.10689,-0.12522 -0.56036,-0.12522 -0.45347,0 0.0282,1.49588 1.02241,0.13529 1.36041,0.53126 0.10687,0.12521 -0.0676,0.37287 0,0.53126 0.0955,0.22399 0.30231,0.35417 0.45347,0.53125 0.15115,0.17709 0.26227,0.41925 0.45348,0.53125 0.1352,0.0791 0.34659,-0.12522 0.45347,0 0.10688,0.12521 -0.10688,0.40604 0,0.53126 0.21376,0.25043 0.63655,-0.15839 0.90694,0 0.11806,0.0692 0.55246,0.94655 0.90694,0.53124 0.10689,-0.1252 -0.10689,-0.40603 0,-0.53124 0.21377,-0.25044 0.69318,0.25043 0.90695,0 0.10688,-0.12522 -0.10689,-0.40605 0,-0.53126 0.10688,-0.12522 0.34659,0.12521 0.45347,0 0.10689,-0.12522 -0.10688,-0.40603 0,-0.53125 0.10689,-0.12522 0.34658,0.12522 0.45347,0 0.10688,-0.12522 -0.0676,-0.37286 0,-0.53125 0.0956,-0.22401 0.35787,-0.30726 0.45347,-0.53126 0.0192,-0.0453 0.0192,-2.07972 0,-2.12501 -0.0956,-0.22401 -0.30231,-0.35418 -0.45347,-0.53126 -0.15117,-0.17708 -0.26227,-0.41926 -0.45347,-0.53127 -0.13521,-0.0791 -0.34659,0.12523 -0.45347,0 -0.10689,-0.1252 0.10688,-0.40603 0,-0.53124 -0.10689,-0.12523 -0.31828,0.0791 -0.45348,0 -1.50396,-1.76195 0.42754,0.25043 -0.90693,-0.53126 -0.19122,-0.112 -0.26229,-0.41925 -0.45348,-0.53125 -0.24599,-0.1441 -1.6898,0.14536 -1.81389,0 -0.10688,-0.12522 0.10688,-0.40603 0,-0.53125 -0.10856,-0.1272 -1.81388,0.12077 -1.81388,0 0,-0.35417 0.63655,0.15838 0.90695,0 0.19119,-0.11201 0.26226,-0.41927 0.45346,-0.53125 0.36278,-0.21251 0.99764,0.21249 1.36042,0 0.1912,-0.11201 0.26226,-0.41926 0.45347,-0.53127 0.13519,-0.0791 0.31826,0.0791 0.45347,0 0.19119,-0.11199 0.26226,-0.41925 0.45348,-0.53125 0.13518,-0.0791 0.34657,0.12522 0.45346,0 0.10689,-0.12522 -0.10689,-0.40604 0,-0.53125 0.10689,-0.12522 0.31828,0.0791 0.45347,0 0.19121,-0.112 0.26227,-0.41925 0.45348,-0.53126 0.1352,-0.0791 0.34659,0.12523 0.45347,0 0.10689,-0.12521 -0.0676,-0.37287 0,-0.53125 0.0956,-0.224 0.35786,-0.30726 0.45347,-0.53126 0.0676,-0.15839 -0.10689,-0.40603 0,-0.53126 0.10688,-0.12521 0.34659,0.12523 0.45347,0 0.10689,-0.12521 -0.0676,-0.37286 0,-0.53124 0.0955,-0.224 0.35787,-0.30727 0.45348,-0.53126 0.069,-0.16168 0,-1.35451 0,-1.59377 0,-0.2778 0.0597,-1.98533 0,-2.12501 -0.0603,-0.14106 -1.24002,-1.52324 -1.36042,-1.59377 -0.2704,-0.15838 -0.69319,0.25044 -0.90695,0 -0.10688,-0.12522 0.10689,-0.40603 0,-0.53125 -0.0453,-0.0532 -1.31507,-0.0532 -1.36041,0 -0.10689,0.12522 0.10688,0.40603 0,0.53125 -0.10689,0.12523 -0.3466,-0.12522 -0.45347,0 -0.10689,0.12523 0.0676,0.37287 0,0.53126 -0.0956,0.224 -0.35787,0.30726 -0.45347,0.53125 -0.0676,0.1584 0.10688,0.40604 0,0.53126 -0.10688,0.12522 -0.3466,-0.12522 -0.45347,0 -0.10689,0.12522 0.0676,0.37287 0,0.53125 -0.0956,0.224 -0.35789,0.30727 -0.45348,0.53126 -0.0676,0.15839 0.10688,0.40603 0,0.53125 -0.10688,0.12522 -0.3466,-0.12522 -0.45347,0 -0.22674,0.26563 0.22674,1.32814 0,1.59376 -0.10689,0.12523 -0.34659,-0.12521 -0.45346,0 -0.21378,0.25044 0.21376,0.81208 0,1.06252 -0.10689,0.12521 -0.3466,-0.12523 -0.45348,0 -0.21377,0.25043 0.21376,0.81207 0,1.0625 -1.20926,0 0.15115,-0.17708 -0.45347,0.53126 -0.10689,0.12521 -0.34659,-0.12522 -0.45347,0 -0.10688,0.12521 0.15115,0.53125 0,0.53125 -0.15117,0 0.10688,-0.40604 0,-0.53125 -0.10688,-0.12522 -0.3466,0.12521 -0.45347,0 -0.0927,-0.10862 0.0899,-1.38313 0,-1.59376 -0.0956,-0.224 -0.35789,-0.30727 -0.45348,-0.53126 -0.0676,-0.15839 0.10688,-0.40603 0,-0.53126 -0.10688,-0.12521 -0.45347,0.1771 -0.45347,0 0,-0.35416 0.69318,0.25044 0.90695,0 0.10687,-0.12521 -0.10689,-0.40604 0,-0.53124 0.10687,-0.12523 0.31826,0.0791 0.45347,0 0.1912,-0.11201 0.3023,-0.35418 0.45347,-0.53127"
       id="path3627" />
    <path
       style="fill:url(#linearGradient3625);stroke:#2b0000;stroke-width:1.50000000000000000;stroke-miterlimit:4;stroke-opacity:1;fill-opacity:1"
       d="m 434.5,399.86218 c 0,0 -13.54239,14.81522 -35.22856,22.10879 -12.41912,4.17685 -24.77126,12.65497 -36.103,20.1082 -21.67293,14.25496 -44.9559,24.28301 -56.41844,24.28301 -21.13302,-11 -22.25,-13.10962 -39.75,-31.5 3.81015,-12.05369 21.38712,-29.96704 45.80544,-39.74896 12.8951,-5.16574 25.88004,-9.75158 37.10871,-17.45879 14.00966,-9.61603 32.33683,-10.79225 41.33585,-10.79225 25.63302,11 43.25,33 43.25,33 z"
       id="path3608"
       sodipodi:nodetypes="cssccsscc" />
    <path
       style="fill:url(#linearGradient3642);stroke:#280b0b;stroke-width:1.89999998000000003;stroke-miterlimit:4;stroke-opacity:1;fill-opacity:1"
       d="m 316,394.36218 31.5,-15.5 c 0,0 47.58234,26.36065 50.2,46.4 1.87499,14.35388 -2.7,27.1 -2.7,27.1 l -29.5,14.5 c -6.18463,-8.48734 3.5761,-17.4764 -0.035,-25.98089 C 358.80998,425.20825 316,394.36218 316,394.36218 z"
       id="rect3629"
       sodipodi:nodetypes="ccsccsc" />
    <path
       style="fill:#ffffff;stroke:#000000;stroke-width:1px;stroke-linecap:butt;stroke-linejoin:miter;stroke-opacity:1"
       d="m 362.5,444.36218 c 0.47361,-0.1118 1.05279,0.22361 1.5,0 0.14907,-0.0745 -0.11785,-0.38215 0,-0.5 0.10222,-0.10222 1.30175,0.0991 1.5,0 0.21082,-0.10541 0.28918,-0.39459 0.5,-0.5 0.14907,-0.0745 0.33333,0 0.5,0 0.16667,0 0.35093,-0.0745 0.5,0 0.21082,0.10541 0.28918,0.39459 0.5,0.5 0.14907,0.0745 0.38215,-0.11785 0.5,0 0.11785,0.11785 -0.11785,0.38215 0,0.5 1.03452,1.03452 -0.0404,-1.58088 1,0.5 0.0745,0.14907 -0.0745,0.35093 0,0.5 0.10541,0.21082 0.39459,0.28918 0.5,0.5 0.0745,0.14907 -0.11785,0.38215 0,0.5 0.11785,0.11785 0.38215,-0.11785 0.5,0 0.0201,0.0201 0,1.81638 0,2 0,0.12127 0.0161,1.48392 0,1.5 -0.11785,0.11785 -0.38215,-0.11785 -0.5,0 -0.11785,0.11785 0.0745,0.35093 0,0.5 -0.0677,0.13544 -0.93228,0.86456 -1,1 -0.0745,0.14907 0.11785,0.38215 0,0.5 -0.11785,0.11785 -0.38215,-0.11785 -0.5,0 -0.11785,0.11785 0.11785,0.38215 0,0.5 -0.11785,0.11785 -0.35093,-0.0745 -0.5,0 -0.21082,0.10541 -0.28918,0.39459 -0.5,0.5 -0.14907,0.0745 -0.38215,-0.11785 -0.5,0 -0.11785,0.11785 0.11785,0.38215 0,0.5 -0.0201,0.0201 -1.81638,0 -2,0 -0.12126,0 -1.48392,-0.0161 -1.5,0 -0.11785,0.11785 0.16667,0.5 0,0.5 -0.16667,0 -0.16667,-0.5 0,-0.5 0.16667,0 -0.11785,0.38215 0,0.5 0.11785,0.11785 0.38215,-0.11785 0.5,0 0.11785,0.11785 -0.0745,0.35093 0,0.5 0.10541,0.21082 0.39459,0.28918 0.5,0.5 0.0745,0.14907 -0.11785,0.38215 0,0.5 0.11785,0.11785 0.38215,-0.11785 0.5,0 0.2357,0.2357 -0.14907,0.70186 0,1 0.10541,0.21082 0.39459,0.28918 0.5,0.5 0.0761,0.15217 0,1.27482 0,1.5 0,0.16667 0,0.33334 0,0.5 0,0.16667 0.11785,0.38215 0,0.5 -0.11785,0.11785 -0.38215,-0.11785 -0.5,0 -1.03452,1.03452 1.58088,-0.0404 -0.5,1 -0.19825,0.0991 -1.39778,-0.10222 -1.5,0 -0.22222,0.22222 0.38889,0.94445 -0.5,0.5 -1.2357,-0.61785 0.17259,-0.5 -1,-0.5 -0.33333,0 -0.66667,0 -1,0 -0.16667,0 -0.38215,0.11785 -0.5,0 -0.11785,-0.11785 0.11785,-0.38215 0,-0.5 -0.33966,-0.33966 -0.99438,0.51124 -1.5,-0.5 -0.0745,-0.14907 0,-0.33333 0,-0.5"
       id="path3632" />
    <path
       style="fill:#ffffff;stroke:#000000;stroke-width:1px;stroke-linecap:butt;stroke-linejoin:miter;stroke-opacity:1"
       d="m 400.22244,423.74425 c -0.21082,0.10541 -0.49629,-0.10541 -0.70711,0 -0.18883,0.0944 -0.87453,0.87453 -1.06066,1.06066 -0.11785,0.11785 -0.2357,0.23571 -0.35355,0.35356 -0.11785,0.11785 -0.27902,0.20448 -0.35356,0.35355 -0.0527,0.10541 0.0527,0.24814 0,0.35355 -0.7357,1.47141 0.0244,-0.37796 -0.7071,0.35356 -0.0833,0.0833 0.0527,0.24814 0,0.35355 -0.0745,0.14907 -0.27902,0.20448 -0.35356,0.35355 -0.0527,0.10541 0.0373,0.24175 0,0.35356 -0.0833,0.25 -0.27022,0.4571 -0.35355,0.7071 -0.0459,0.13758 0.0549,1.0058 0,1.06066 -0.0833,0.0833 -0.27022,-0.0833 -0.35355,0 -0.016,0.016 0,1.60107 0,1.76777 0,0.11785 -0.0833,0.27022 0,0.35355 0.0833,0.0833 0.27022,-0.0833 0.35355,0 0.0833,0.0833 -0.0527,0.24815 0,0.35356 0.0745,0.14907 0.2357,0.2357 0.35355,0.35355 0.11786,0.11785 0.20449,0.27902 0.35356,0.35356 0.21082,0.1054 0.54044,-0.16667 0.7071,0 0.0833,0.0833 -0.0833,0.27022 0,0.35355 0.0833,0.0833 0.23571,0 0.35356,0 0.15922,0 0.95306,0.0538 1.06066,0 0.14907,-0.0745 0.20448,-0.27902 0.35355,-0.35355 0.21082,-0.10541 0.49629,0.1054 0.70711,0 0.14907,-0.0745 0.20448,-0.27902 0.35355,-0.35356 0.10541,-0.0527 0.27022,-0.0833 0.35356,0 0.0833,0.0833 0.0833,0.27022 0,0.35356 -0.10948,0.10947 -1.65829,-0.10948 -1.76777,0 -0.0833,0.0833 0.0833,0.27022 0,0.35355 -0.0723,0.0723 -0.92048,-0.0701 -1.06066,0 -1.17259,1.17259 0.33333,-0.16667 -0.70711,0.35355 -0.14907,0.0745 -0.20448,0.27902 -0.35355,0.35356 -0.10541,0.0527 -0.24815,-0.0527 -0.35356,0 -0.0939,0.0469 -1.01372,0.96678 -1.06066,1.06066 -0.0527,0.1054 0.0833,0.27022 0,0.35355 -0.0833,0.0833 -0.27022,-0.0833 -0.35355,0 -0.0833,0.0833 0.0833,0.27022 0,0.35355 -0.0833,0.0833 -0.27022,-0.0833 -0.35355,0 -0.17678,0.17678 0.17677,0.88389 0,1.06066 -0.47141,0.47141 -0.35356,-0.58925 -0.35356,0.35356 0,0.24591 -0.0639,1.63991 0,1.76776 0.0745,0.14907 0.27902,0.20448 0.35356,0.35356 0.0959,0.19179 -0.0967,1.31747 0,1.41421 0.0833,0.0833 0.27022,-0.0833 0.35355,0 0.16667,0.16667 -0.10541,0.49629 0,0.70711 0.0745,0.14907 0.27902,0.20448 0.35355,0.35355 0.10541,0.21082 -0.1054,0.49629 0,0.70711 0.0338,0.0677 1.34654,1.38037 1.41422,1.41421 0.10541,0.0527 0.27022,-0.0833 0.35355,0 0.0833,0.0833 -0.0833,0.27022 0,0.35355 0.11782,0.11782 0.58929,-0.11782 0.70711,0 0.0833,0.0833 -0.0833,0.27022 0,0.35356 0.0833,0.0833 0.24814,-0.0527 0.35355,0 0.14907,0.0745 0.20448,0.27901 0.35355,0.35355 0.0649,0.0324 1.06067,-0.026 1.06067,0 0,0.11785 -0.27022,0.0833 -0.35356,0 -0.0833,-0.0833 0.0527,-0.24814 0,-0.35355 -0.0745,-0.14907 -0.2357,-0.23571 -0.35355,-0.35356"
       id="path3644" />
    <path
       style="fill:none;stroke:#000000;stroke-width:1px;stroke-linecap:butt;stroke-linejoin:miter;stroke-opacity:1"
       d="m 312.18764,326.87062 c -0.11785,-0.4714 -0.2357,-0.9428 0,0 z"
       id="path3646" />
  </g>
</svg>
