<?xml version="1.0" encoding="UTF-8" standalone="no"?>
<!-- Created with Inkscape (http://www.inkscape.org/) -->

<svg
   xmlns:dc="http://purl.org/dc/elements/1.1/"
   xmlns:cc="http://creativecommons.org/ns#"
   xmlns:rdf="http://www.w3.org/1999/02/22-rdf-syntax-ns#"
   xmlns:svg="http://www.w3.org/2000/svg"
   xmlns="http://www.w3.org/2000/svg"
   xmlns:sodipodi="http://sodipodi.sourceforge.net/DTD/sodipodi-0.dtd"
   xmlns:inkscape="http://www.inkscape.org/namespaces/inkscape"
   width="640"
   height="640"
   id="svg2"
   version="1.1"
   inkscape:version="0.48+devel r"
   sodipodi:docname="suite-2.svg">
  <defs
     id="defs4">
    <inkscape:perspective
       sodipodi:type="inkscape:persp3d"
       inkscape:vp_x="0 : 526.18109 : 1"
       inkscape:vp_y="0 : 1000 : 0"
       inkscape:vp_z="744.09448 : 526.18109 : 1"
       inkscape:persp3d-origin="372.04724 : 350.78739 : 1"
       id="perspective10" />
    <inkscape:perspective
       id="perspective2826"
       inkscape:persp3d-origin="0.5 : 0.33333333 : 1"
       inkscape:vp_z="1 : 0.5 : 1"
       inkscape:vp_y="0 : 1000 : 0"
       inkscape:vp_x="0 : 0.5 : 1"
       sodipodi:type="inkscape:persp3d" />
    <inkscape:perspective
       id="perspective3637"
       inkscape:persp3d-origin="0.5 : 0.33333333 : 1"
       inkscape:vp_z="1 : 0.5 : 1"
       inkscape:vp_y="0 : 1000 : 0"
       inkscape:vp_x="0 : 0.5 : 1"
       sodipodi:type="inkscape:persp3d" />
    <inkscape:perspective
       id="perspective3663"
       inkscape:persp3d-origin="0.5 : 0.33333333 : 1"
       inkscape:vp_z="1 : 0.5 : 1"
       inkscape:vp_y="0 : 1000 : 0"
       inkscape:vp_x="0 : 0.5 : 1"
       sodipodi:type="inkscape:persp3d" />
    <inkscape:perspective
       id="perspective3688"
       inkscape:persp3d-origin="0.5 : 0.33333333 : 1"
       inkscape:vp_z="1 : 0.5 : 1"
       inkscape:vp_y="0 : 1000 : 0"
       inkscape:vp_x="0 : 0.5 : 1"
       sodipodi:type="inkscape:persp3d" />
    <inkscape:perspective
       id="perspective3723"
       inkscape:persp3d-origin="0.5 : 0.33333333 : 1"
       inkscape:vp_z="1 : 0.5 : 1"
       inkscape:vp_y="0 : 1000 : 0"
       inkscape:vp_x="0 : 0.5 : 1"
       sodipodi:type="inkscape:persp3d" />
    <inkscape:perspective
       id="perspective3745"
       inkscape:persp3d-origin="0.5 : 0.33333333 : 1"
       inkscape:vp_z="1 : 0.5 : 1"
       inkscape:vp_y="0 : 1000 : 0"
       inkscape:vp_x="0 : 0.5 : 1"
       sodipodi:type="inkscape:persp3d" />
    <inkscape:perspective
       id="perspective3775"
       inkscape:persp3d-origin="0.5 : 0.33333333 : 1"
       inkscape:vp_z="1 : 0.5 : 1"
       inkscape:vp_y="0 : 1000 : 0"
       inkscape:vp_x="0 : 0.5 : 1"
       sodipodi:type="inkscape:persp3d" />
    <inkscape:perspective
       id="perspective2973"
       inkscape:persp3d-origin="0.5 : 0.33333333 : 1"
       inkscape:vp_z="1 : 0.5 : 1"
       inkscape:vp_y="0 : 1000 : 0"
       inkscape:vp_x="0 : 0.5 : 1"
       sodipodi:type="inkscape:persp3d" />
    <inkscape:perspective
       id="perspective3045"
       inkscape:persp3d-origin="0.5 : 0.33333333 : 1"
       inkscape:vp_z="1 : 0.5 : 1"
       inkscape:vp_y="0 : 1000 : 0"
       inkscape:vp_x="0 : 0.5 : 1"
       sodipodi:type="inkscape:persp3d" />
    <inkscape:perspective
       id="perspective3076"
       inkscape:persp3d-origin="0.5 : 0.33333333 : 1"
       inkscape:vp_z="1 : 0.5 : 1"
       inkscape:vp_y="0 : 1000 : 0"
       inkscape:vp_x="0 : 0.5 : 1"
       sodipodi:type="inkscape:persp3d" />
    <inkscape:perspective
       id="perspective3121"
       inkscape:persp3d-origin="0.5 : 0.33333333 : 1"
       inkscape:vp_z="1 : 0.5 : 1"
       inkscape:vp_y="0 : 1000 : 0"
       inkscape:vp_x="0 : 0.5 : 1"
       sodipodi:type="inkscape:persp3d" />
    <inkscape:perspective
       id="perspective3143"
       inkscape:persp3d-origin="0.5 : 0.33333333 : 1"
       inkscape:vp_z="1 : 0.5 : 1"
       inkscape:vp_y="0 : 1000 : 0"
       inkscape:vp_x="0 : 0.5 : 1"
       sodipodi:type="inkscape:persp3d" />
  </defs>
  <sodipodi:namedview
     id="base"
     pagecolor="#ffffff"
     bordercolor="#666666"
     borderopacity="1.0"
     inkscape:pageopacity="0.0"
     inkscape:pageshadow="2"
     inkscape:zoom="0.25"
     inkscape:cx="-426.15539"
     inkscape:cy="119.23198"
     inkscape:document-units="px"
     inkscape:current-layer="layer1"
     showgrid="false"
     inkscape:window-width="1024"
     inkscape:window-height="694"
     inkscape:window-x="0"
     inkscape:window-y="24"
     inkscape:window-maximized="1" />
  <metadata
     id="metadata7">
    <rdf:RDF>
      <cc:Work
         rdf:about="">
        <dc:format>image/svg+xml</dc:format>
        <dc:type
           rdf:resource="http://purl.org/dc/dcmitype/StillImage" />
        <dc:title />
      </cc:Work>
    </rdf:RDF>
  </metadata>
  <g
     inkscape:label="Layer 1"
     inkscape:groupmode="layer"
     id="layer1"
     transform="translate(0,-412.36218)">
    <g
       id="g3011"
       transform="translate(-216,78)">
      <g
         transform="translate(-8.1767767,3.8232233)"
         id="g3780">
        <path
           inkscape:connector-curvature="0"
           sodipodi:nodetypes="ccccc"
           id="path3778"
           d="m 859.63546,607.20982 2.05313,3.48362 -295.73074,360.73696 -16.08116,-10.60578 309.75877,-353.6148 z"
           style="fill:#b4b4b4;fill-opacity:0.47843137;stroke:#b4b4b4;stroke-width:8.64242172;stroke-linejoin:miter;stroke-miterlimit:4;stroke-opacity:0.47843137" />
        <path
           style="fill:#333333;fill-opacity:1;stroke:#333333;stroke-width:8.64242172;stroke-linejoin:miter;stroke-miterlimit:4;stroke-opacity:1"
           d="m 859.63546,599.20982 2.05313,3.48362 -295.73074,360.73696 -16.08116,-10.60578 309.75877,-353.6148 z"
           id="rect3677-5-5"
           sodipodi:nodetypes="ccccc"
           inkscape:connector-curvature="0" />
      </g>
      <path
         inkscape:connector-curvature="0"
         id="rect2816-8-0-3"
         transform="translate(0,308.2677)"
         d="m 529.4375,214.4375 c -47.06983,0.22773 -128.46875,6.53125 -128.46875,6.53125 l -1.625,0 0,1.625 c -3.43752,50.96945 -7.37543,91.19072 -5.53125,134.21875 1.84418,43.02803 5.53125,136.0625 5.53125,136.0625 l 0,1.625 1.625,0 c 0,0 93.74498,7.36195 138.84375,7.40625 15.5537,0.0153 35.83595,-0.85327 55.8125,-2 0.19471,-0.4131 0.4397,-0.84429 0.8125,-1.28125 0.98326,-1.15246 0.39985,-0.49895 1.84375,-2.03125 2.01597,-1.92129 0.22516,-0.1361 2.46875,-2.71875 0.46114,-0.53083 0.96878,-1.03836 1.4375,-1.5625 1.3567,-1.51708 2.59325,-3.12106 4.1875,-4.40625 0.5447,-0.51971 0.71756,-0.71596 0.8125,-0.8125 -0.023,-0.0134 0.20229,-0.2928 1.34375,-1.5 0.38017,-0.40207 0.79143,-0.76983 1.1875,-1.15625 1.51811,-1.48115 3.00184,-3.01214 4.34375,-4.65625 0.21781,-0.26685 0.4336,-0.48591 0.65625,-0.6875 -23.62318,1.42637 -53.20941,2.92545 -73.96875,2.90625 -39.29192,-0.0363 -121.5,-5.5625 -121.5,-5.5625 0,0 -3.82912,-77.99579 -4,-117.625 -0.17086,-39.62922 3.09375,-119.78125 3.09375,-119.78125 28.2548,-2.91611 60.52364,-5.44105 91.65625,-5.6875 2.59438,-0.0205 5.17439,-0.0419 7.75,-0.0312 7.72682,0.0318 15.36218,0.22619 22.8125,0.59375 39.73503,1.96029 114.28125,6.03125 114.28125,6.03125 0,0 4.05981,62.38378 4.125,107.5 0.0357,24.67714 -1.15738,59.63784 -2.25,86.59375 0.20943,-0.17739 0.42339,-0.34338 0.625,-0.53125 0.41711,-0.357 0.85506,-0.68111 1.25,-1.0625 1.06373,-1.02726 2.01048,-2.17949 3.0625,-3.21875 1.35818,-1.34169 2.15645,-2.03064 3.625,-3.25 0.54037,-0.44867 1.10744,-0.90545 1.65625,-1.34375 0.84842,-0.7327 1.7109,-1.42351 2.53125,-2.1875 0.0429,-0.0399 0.0824,-0.0845 0.125,-0.125 0.58236,-0.63565 1.13693,-1.3011 1.71875,-1.9375 5.99584,-6.55827 -1.74098,2.11309 4.03125,-4.375 0.31749,-0.35686 0.6167,-0.64083 0.9375,-0.875 1.15291,-21.00302 1.99117,-41.94847 1.21875,-62.03125 -1.74067,-45.25667 -4.625,-130.5 -4.625,-130.5 l 0,-1.625 -1.625,0 c -45.83206,-5.6569 -88.09669,-5.79083 -132.875,-6.4688 -2.79864,-0.0424 -5.79951,-0.0777 -8.9375,-0.0625 z m 146.125,213.78125 c -0.48823,0.51667 -0.99454,1.0316 -1.53125,1.5 -1.72138,1.6489 -1.95537,1.81756 -3.6875,3.28125 -0.50668,0.42815 -1.02406,0.85371 -1.53125,1.28125 -3.25917,3.33114 -6.37596,6.80115 -10,9.75 -0.9242,0.75201 -1.80927,1.10877 -2.5625,1.15625 -0.16634,3.88313 -0.19846,4.56895 -0.34375,7.84375 1.25878,1.04978 2.54138,2.06982 3.78125,3.125 1.66125,1.32821 3.26182,2.80053 4.96875,4.09375 0.64178,-0.71022 1.30044,-1.40959 1.96875,-2.09375 0.84776,-0.86786 1.73945,-1.66983 2.59375,-2.53125 1.02558,-1.03413 3.18643,-3.36845 4.21875,-4.46875 0.2729,-0.3073 0.5619,-0.60778 0.84375,-0.90625 0.39653,-7.30894 0.84789,-14.66395 1.28125,-22.03125 z m -19.9375,31.0625 c -0.19996,4.39464 -0.51587,11.40802 -0.59375,13 1.39072,-1.80057 2.74559,-3.59689 4.125,-5.40625 0.73714,-0.94464 1.49052,-1.88249 2.25,-2.8125 -1.70201,-1.30294 -3.31743,-2.74183 -4.96875,-4.09375 -0.26996,-0.22991 -0.54063,-0.45955 -0.8125,-0.6875 z m -4.09375,17.375 c -2.99316,0.22053 -13.66779,0.98719 -27.65625,1.875 -0.1589,0.34766 -0.35357,0.69312 -0.625,1.0625 -1.86862,2.54288 -3.77692,5.09798 -5.9375,7.40625 -1.03936,1.11041 -1.9568,1.93227 -3.0625,2.96875 -2.76757,2.99837 -5.28305,6.21697 -7.9375,9.3125 9.49276,-0.5917 18.72885,-1.24083 27.09375,-1.84375 0.524,-0.53853 1.02454,-1.10047 1.5625,-1.625 0.63268,-0.61689 1.31251,-1.15657 1.9375,-1.78125 3.28776,-3.28612 0.21927,-0.48098 3.6875,-4 0.37052,-0.37594 1.04852,-0.99505 1.65625,-1.5625 0.13176,-0.73302 0.4778,-1.5764 1.21875,-2.40625 2.74849,-3.07823 5.443,-6.21305 8.0625,-9.40625 z"
         style="font-size:medium;font-style:normal;font-variant:normal;font-weight:normal;font-stretch:normal;text-indent:0;text-align:start;text-decoration:none;line-height:normal;letter-spacing:normal;word-spacing:normal;text-transform:none;direction:ltr;block-progression:tb;writing-mode:lr-tb;text-anchor:start;color:#000000;fill:#b4b4b4;fill-opacity:0.47843137;fill-rule:nonzero;stroke:none;stroke-width:5;marker:none;visibility:visible;display:inline;overflow:visible;enable-background:accumulate;font-family:AlArabiya;-inkscape-font-specification:AlArabiya" />
      <path
         inkscape:connector-curvature="0"
         style="fill:#b5b5b5;fill-opacity:0.20392157;stroke:#b4b4b4;stroke-width:8.64242172;stroke-linejoin:miter;stroke-miterlimit:4;stroke-opacity:0.47843137"
         d="M 830.25,590.42395 654.90625,768.4552 c 1.57527,1.35168 3.21038,2.63187 4.78125,3.96875 1.48091,1.18402 2.90465,2.47405 4.40625,3.65625 L 832.0625,594.0177 830.25,590.42395 z m -178.84375,181.5625 -24.96875,25.375 c -0.16329,0.20278 -0.32558,0.40069 -0.5,0.59375 -0.5109,0.56549 -1.03942,1.102 -1.5625,1.65625 -2.15595,2.56355 -4.55194,4.93759 -6.84375,7.375 -0.78997,0.84015 -1.51119,1.73315 -2.3125,2.5625 -1.48923,1.54133 -3.39653,3.22863 -4.96875,4.6875 -1.74328,1.59245 -3.43929,3.25322 -5.09375,4.9375 -0.32518,0.33104 -0.64769,0.56818 -0.96875,0.78125 l -104.21875,105.8125 15.40625,11.5 67.6875,-73.375 c 0.36428,-0.48505 0.83182,-1.05467 1.84375,-2.21875 1.94092,-2.23277 4.06668,-4.34351 6.125,-6.46875 0.19728,-0.19683 0.39676,-0.39663 0.59375,-0.59375 l 5.8125,-6.28125 c 0.0907,-0.0989 0.25558,-0.28324 0.34375,-0.375 l 2.25,-2.4375 c -0.0416,-0.66928 0.11313,-1.04438 0.6875,-0.75 l 59.96875,-65 c -1.44358,-1.14676 -2.83085,-2.3694 -4.25,-3.53125 -1.6708,-1.42297 -3.37338,-2.81013 -5.03125,-4.25 z"
         id="path3008" />
      <path
         sodipodi:nodetypes="cccccscccccscscsccssccccccccscccscccccssscccscccccsccccccccscccccccccccccccsccccccccccccccccccccccccscccscccccccccccccccccscscscs"
         inkscape:connector-curvature="0"
         id="rect2816-8-04"
         transform="translate(0,308.2677)"
         d="M 536.0625,128.96875 C 470.19655,130.99026 377.13,132.66311 319.25,138.25 c -8.24808,64.16887 -11.43987,152.03256 -8.59375,218.4375 -1.19449,68.42524 8.82604,180.94298 12.8125,217.0625 53.50067,7.63689 119.88496,8.81078 179,10.15625 0.59111,-0.47936 1.18262,-0.96266 1.75,-1.46875 1.46686,-1.3084 2.85647,-2.67955 4.3125,-4 6.66561,-5.61111 13.2693,-11.30001 19.75,-17.125 4.03,-3.68765 7.91685,-7.52101 11.71875,-11.4375 -60.74269,-0.0805 -187.21875,-8.5625 -187.21875,-8.5625 0,0 -9.09697,-123.48957 -9.3125,-184.625 -0.28278,-13.00019 -0.38212,-17.11745 -0.34375,-26.625 0.26502,-65.66403 7.21875,-156.15625 7.21875,-156.15625 58.14064,-5.8256 129.17359,-9.81365 188.9375,-9.90625 59.76391,-0.0926 177.0625,12.34375 177.0625,12.34375 0,0 8.46192,113.72758 8.5625,174.625 0.004,2.63492 -0.004,5.43669 -0.0312,8.3125 3.00619,-3.28404 6.24507,-6.33611 9.40625,-9.46875 1.66579,-1.83863 3.15269,-3.86319 4.9375,-5.59375 1.37891,-1.33699 2.3548,-1.99474 3.78125,-3.21875 0.58887,-0.5053 1.17255,-1.04419 1.75,-1.5625 3.098,-3.16583 6.33262,-6.17978 9.75,-9 0.33009,-0.34983 0.65868,-0.72363 1,-1.0625 0.42078,-0.41778 0.86875,-0.79279 1.28125,-1.21875 0.21015,-0.21702 0.73641,-0.86052 1.21875,-1.4375 1.22585,-68.02717 -7.01623,-154.79636 -10.25,-183.90625 -75.78314,-6.06091 -140.16469,-13.03683 -211.6875,-13.84375 z m 221.40625,215.125 c -0.42767,0.48636 -0.85729,0.9772 -1.3125,1.4375 -0.65136,0.65865 -3.13928,2.84457 -3.875,3.5 -4.18812,3.94388 -8.87661,7.34674 -12.59375,11.78125 -3.78775,3.8213 -7.32212,7.87127 -10.65625,12.09375 -0.488,0.63397 -0.94856,1.29842 -1.46875,1.90625 -0.91847,1.07322 -2.00422,1.96012 -3.03125,2.90625 -0.19914,7.8744 -0.46129,16.2289 -0.78125,24.78125 0.8075,-1.16314 1.66392,-2.20769 2.5625,-3.3125 3.32472,-4.16903 7.03358,-7.97017 10.375,-12.125 1.40939,-1.60915 2.77235,-3.25799 4.1875,-4.875 -0.1268,-0.85248 0.0949,-1.92031 0.875,-3.09375 1.02168,-1.53679 2.0853,-3.06636 3.25,-4.5 0.45848,-0.56434 0.98702,-1.08551 1.4375,-1.65625 0.39333,-0.49833 0.71671,-1.02049 1.09375,-1.53125 0.4539,-0.6149 0.94118,-1.23726 1.40625,-1.84375 0.40054,-0.53415 0.78854,-1.05842 1.1875,-1.59375 1.3819,-1.8542 2.84585,-3.63844 4.375,-5.375 2.15818,-2.4509 1.34909,-1.35522 2.5625,-3.09375 -6e-5,-0.0107 6e-5,-0.0206 0,-0.0312 -0.0139,-2.4298 -0.0239,-4.80515 -0.0625,-7.09375 0.17304,-2.69829 0.33504,-5.47744 0.46875,-8.28125 z m -2.5625,104.03125 c -0.3238,0.37858 -0.68551,0.72343 -1.09375,1.03125 -0.46217,0.45334 -0.67952,1.08696 -1.03125,1.625 -0.29903,0.45743 -0.74227,0.85983 -1.0625,1.3125 0.0363,-0.0714 -0.3285,0.42508 -0.90625,1.03125 -0.0274,0.0287 -0.10669,0.0518 -0.1875,0.0625 l -0.4375,0.78125 c -0.0884,0.13179 -0.23247,0.23061 -0.34375,0.34375 -0.37505,0.36315 -0.76466,0.68736 -1.15625,1.03125 -0.0436,0.0756 -0.10285,0.22747 -0.15625,0.34375 -0.0409,0.21383 -0.10692,0.42342 -0.1875,0.625 -0.28345,0.70907 -1.12133,1.34076 -1.6875,2 -0.1048,0.0638 -0.32617,0.25189 -0.40625,0.28125 -0.0581,0.0691 -0.0952,0.15244 -0.15625,0.21875 -0.0458,0.0498 0.0239,-0.0723 0.0937,-0.1875 -0.80396,1.02511 -0.42375,0.76179 -0.8125,1 -0.24631,0.65933 -0.56561,1.35841 -1.0625,1.59375 -0.18794,0.42938 -0.55286,1.18511 -0.6875,1.03125 -0.0282,-0.0322 -0.0315,-0.0742 -0.0312,-0.125 -0.43664,0.86442 -0.0134,0.45631 -0.59375,1 -0.28116,0.20386 -0.0743,0.0827 -0.21875,0.1875 -0.35677,0.35399 -0.57838,0.80117 -0.9375,1.15625 -0.0712,0.0493 -0.18692,0.16633 -0.28125,0.25 -0.16445,0.28464 -0.34045,0.54889 -0.59375,0.75 -0.16592,0.13174 -0.0117,-0.12252 0.1875,-0.40625 -0.18113,0.16606 -0.33243,0.32188 -0.4375,0.375 -0.15212,0.32157 -0.34346,1.0612 -0.625,0.84375 -0.0195,-0.0151 0.0188,-0.0565 0.0625,-0.15625 -0.17039,0.28615 -0.20221,0.34223 -0.46875,0.78125 -0.0318,0.0524 -0.10851,0.0865 -0.15625,0.125 -0.046,0.0323 -0.0814,0.0389 -0.0937,0.0312 -0.0592,0.18925 -0.14146,0.36634 -0.25,0.53125 -0.0675,0.10265 -0.38668,0.40891 -0.625,0.65625 -0.0464,0.0457 -0.0809,0.10745 -0.125,0.15625 -0.12774,0.12923 -0.21649,0.22709 -0.21875,0.21875 -0.0684,0.0789 -0.14604,0.14545 -0.21875,0.21875 -0.13246,0.26987 -0.29752,0.53733 -0.375,0.5 -0.0669,0.21837 -0.095,0.24078 -0.4375,0.59375 -0.48881,0.50858 -0.96999,1.00638 -1.53125,1.4375 0.0122,-0.15006 0.0311,-0.11398 -0.125,0.125 -0.41874,0.64107 -0.18758,0.3736 -0.875,1.375 -0.0243,0.0353 0.0667,-0.14917 0.0312,-0.125 -0.0577,0.0394 -0.0863,0.12928 -0.125,0.1875 -0.65122,1.07628 -1.34464,2.06891 -2.125,3.0625 -0.31422,0.22487 -0.62175,0.43361 -0.9375,0.65625 -0.56662,1.32357 -0.29338,0.91081 -1.34375,2.34375 -0.71597,0.71723 -1.49166,1.38843 -2.1875,2.125 -0.68396,0.77304 -1.33322,1.64692 -2.125,2.3125 -0.0477,0.0401 -0.14595,-0.0464 -0.1875,0 -0.5107,0.57164 -0.69581,1.39615 -1.375,1.84375 -0.60961,0.53779 -1.23037,1.08968 -1.75,1.71875 -0.30613,0.37059 -0.89779,1.33455 -1.125,1.65625 -0.1127,0.15957 -0.25244,0.28539 -0.375,0.4375 -0.1392,0.20221 -0.28459,0.40525 -0.4375,0.59375 -0.047,0.0659 -0.13039,0.1398 -0.1875,0.21875 -0.24491,0.3386 -0.25111,0.37718 -0.71875,1 -0.0973,0.12956 -0.20199,0.25653 -0.3125,0.375 -1.64573,28.6655 -3.03125,50.03125 -3.03125,50.03125 0,0 -15.87304,1.17586 -37.6875,2.59375 -2.83871,3.5654 -5.67763,7.13399 -8.53125,10.6875 -3.87809,5.6429 -8.06588,11.04588 -12.03125,16.625 -2.42421,3.62566 -5.0968,7.07811 -7.71875,10.5625 41.32342,-2.10628 78.38287,-5.0979 95.5625,-8.375 3.37972,-30.36826 6.81777,-78.26305 8.96875,-125.28125 z m -14.75,18 c 0.005,-0.008 -0.005,-0.0229 0,-0.0312 0.002,-0.003 0.0296,0.004 0.0312,0 0.15145,-0.13266 0.40027,-0.52073 0.5,-0.65625 -0.0239,0.004 -0.0507,0.0128 -0.0625,0 l -0.15625,0.125 c -0.0129,0.0221 -0.0185,0.0404 -0.0312,0.0625 l -0.8125,0.75 c 0.1803,-0.0879 0.37298,-0.12895 0.53125,-0.25 z m 5.4375,-7.125 c -0.0493,0.13072 -0.10172,0.28736 -0.15625,0.4375 0.11633,-0.2757 0.22295,-0.61446 0.15625,-0.4375 z"
         style="font-size:medium;font-style:normal;font-variant:normal;font-weight:normal;font-stretch:normal;text-indent:0;text-align:start;text-decoration:none;line-height:normal;letter-spacing:normal;word-spacing:normal;text-transform:none;direction:ltr;block-progression:tb;writing-mode:lr-tb;text-anchor:start;color:#000000;fill:#b4b4b4;fill-opacity:0.47843137;fill-rule:nonzero;stroke:none;stroke-width:5;marker:none;visibility:visible;display:inline;overflow:visible;enable-background:accumulate;font-family:AlArabiya;-inkscape-font-specification:AlArabiya" />
      <path
         inkscape:connector-curvature="0"
         id="rect2816-8-0"
         transform="translate(0,308.2677)"
         d="m 529.4375,208.4375 c -47.06983,0.22773 -128.46875,6.53125 -128.46875,6.53125 l -1.625,0 0,1.625 c -3.43752,50.96945 -7.37543,91.19072 -5.53125,134.21875 1.84418,43.02803 5.53125,136.0625 5.53125,136.0625 l 0,1.625 1.625,0 c 0,0 93.74498,7.36195 138.84375,7.40625 15.48718,0.0152 35.80748,-0.87927 55.84375,-2.03125 0.7266,-0.7318 1.43989,-1.47726 2.1875,-2.1875 0.0424,-0.0402 5.3461,-4.81626 5.40625,-4.875 1.30453,-1.27392 3.78344,-4.03778 5,-5.375 5.43365,-5.80907 0.0721,-0.0369 5.40625,-5.90625 0.77216,-0.84965 1.58189,-1.67259 2.34375,-2.53125 -24.28548,1.46895 -54.48193,3.01921 -75.25,3 -39.29192,-0.0363 -121.5,-5.5625 -121.5,-5.5625 0,0 -3.82912,-77.99579 -4,-117.625 -0.17086,-39.62922 3.09375,-119.78125 3.09375,-119.78125 28.2548,-2.91611 60.52364,-5.44105 91.65625,-5.6875 2.59438,-0.0205 5.17439,-0.0419 7.75,-0.0312 7.72682,0.0318 15.36218,0.22619 22.8125,0.59375 39.73503,1.96029 114.28125,6.03125 114.28125,6.03125 0,0 4.05981,62.38378 4.125,107.5 0.0366,25.29342 -1.25697,62.22975 -2.40625,90.25 1.88869,-2.03511 3.82543,-4.0378 5.96875,-5.8125 0.86686,-0.79463 1.75458,-1.55117 2.59375,-2.375 0.97878,-0.9609 4.16146,-4.42052 5.0625,-5.375 2.08743,-2.21122 4.24806,-4.38225 5.96875,-6.90625 1.21359,-21.70729 2.14162,-43.38083 1.34375,-64.125 -1.74067,-45.25667 -4.625,-130.5 -4.625,-130.5 l 0,-1.625 -1.625,0 c -45.83206,-5.6569 -88.09669,-5.79083 -132.875,-6.4688 -2.79864,-0.0424 -5.79951,-0.0777 -8.9375,-0.0625 z m 145.875,217.96875 c -0.17301,0.19122 -0.18327,0.19068 -0.40625,0.4375 -1.39328,1.54227 -2.81403,3.21373 -4.3125,4.65625 -0.67118,0.64612 -1.39233,1.2306 -2.09375,1.84375 -0.6436,0.56261 -1.29393,1.12486 -1.9375,1.6875 -3.46791,3.52443 -6.781,7.21201 -10.59375,10.375 -0.18547,4.24767 -0.19038,3.9841 -0.34375,7.40625 1.34658,1.13015 2.73262,2.21196 4.0625,3.34375 2.30752,1.84491 4.46853,3.94864 7,5.5 0.2044,-0.24602 0.29174,-0.36805 0.53125,-0.65625 0.83108,-0.9378 3.73107,-4.23413 4.625,-5.28125 0.65528,-0.76757 1.25986,-1.59584 1.9375,-2.34375 0.01,-0.0109 0.0213,-0.0203 0.0312,-0.0312 0.42834,-8.90291 0.96665,-17.91064 1.5,-26.9375 z m -19.96875,32.65625 c -0.17107,3.75248 -0.5,11.375 -0.5,11.375 0,0 -8.53529,0.61008 -19.96875,1.375 -0.0358,0.0371 -0.0574,0.0884 -0.0937,0.125 -0.32634,0.32894 -0.7388,0.57714 -1.09375,0.875 -0.45612,0.38276 -0.60272,0.72929 -0.96875,1.25 -1.47135,2.0721 -3.36631,3.7514 -5.09375,5.59375 -0.59995,0.63986 -1.09949,1.38041 -1.6875,2.03125 -0.5109,0.56549 -1.03942,1.102 -1.5625,1.65625 -2.15595,2.56355 -4.55194,4.93759 -6.84375,7.375 -0.59753,0.63548 -1.16168,1.29354 -1.75,1.9375 8.96622,-0.59712 17.6214,-1.22153 25.15625,-1.78125 1.35044,-1.18628 2.69695,-2.37455 3.875,-3.75 0.62996,-0.73551 1.17026,-1.5299 1.78125,-2.28125 1.34539,-1.65444 3.35899,-3.99294 4.71875,-5.59375 3.43918,-4.3143 7.23771,-8.29317 10.90625,-12.40625 0.53783,-0.603 0.79889,-0.93194 1.1875,-1.375 -2.46829,-1.62607 -4.68819,-3.63293 -6.96875,-5.5 -0.36026,-0.30683 -0.73033,-0.60264 -1.09375,-0.90625 z"
         style="font-size:medium;font-style:normal;font-variant:normal;font-weight:normal;font-stretch:normal;text-indent:0;text-align:start;text-decoration:none;line-height:normal;letter-spacing:normal;word-spacing:normal;text-transform:none;direction:ltr;block-progression:tb;writing-mode:lr-tb;text-anchor:start;color:#000000;fill:#3c3c3c;fill-opacity:1;fill-rule:nonzero;stroke:none;stroke-width:5;marker:none;visibility:visible;display:inline;overflow:visible;enable-background:accumulate;font-family:AlArabiya;-inkscape-font-specification:AlArabiya" />
      <path
         inkscape:connector-curvature="0"
         id="rect3677-5"
         transform="translate(0,308.2677)"
         d="M 830.25,274.15625 654.90625,452.1875 c 1.57527,1.35168 3.21038,2.63187 4.78125,3.96875 1.48091,1.18402 2.90465,2.47405 4.40625,3.65625 L 832.0625,277.75 830.25,274.15625 z m -178.84375,181.5625 -24.96875,25.375 c -0.16329,0.20278 -0.32558,0.40069 -0.5,0.59375 -0.5109,0.56549 -1.03942,1.102 -1.5625,1.65625 -2.15595,2.56355 -4.55194,4.93759 -6.84375,7.375 -0.78997,0.84015 -1.51119,1.73315 -2.3125,2.5625 -1.48923,1.54133 -3.39653,3.22863 -4.96875,4.6875 -1.74328,1.59245 -3.43929,3.25322 -5.09375,4.9375 -0.32518,0.33104 -0.64769,0.56818 -0.96875,0.78125 L 499.96875,609.5 515.375,621 583.0625,547.625 c 0.36428,-0.48505 0.83182,-1.05467 1.84375,-2.21875 1.94092,-2.23277 4.06668,-4.34351 6.125,-6.46875 0.19728,-0.19683 0.39676,-0.39663 0.59375,-0.59375 l 5.8125,-6.28125 c 0.0907,-0.0989 0.25558,-0.28324 0.34375,-0.375 l 2.25,-2.4375 c -0.0416,-0.66928 0.11313,-1.04438 0.6875,-0.75 l 59.96875,-65 c -1.44358,-1.14676 -2.83085,-2.3694 -4.25,-3.53125 -1.6708,-1.42297 -3.37338,-2.81013 -5.03125,-4.25 z"
         style="fill:#333333;fill-opacity:1;stroke:#333333;stroke-width:8.64242172;stroke-linejoin:miter;stroke-miterlimit:4;stroke-opacity:1" />
      <path
         transform="translate(0,308.2677)"
         sodipodi:nodetypes="cccccccsccscsccccssccccccccccccccccsscscccccsccccssscccscccccsccscccscccccccscccccccccccccccsccccccccccccccccccccccccscccccssccccccccccccccccccscccc"
         inkscape:connector-curvature="0"
         id="rect2816-8"
         d="m 536.0625,122.96875 c -65.85461,2.02116 -158.93035,3.69667 -216.8125,9.28125 -8.24808,64.16887 -11.43987,152.03256 -8.59375,218.4375 -1.19449,68.42524 8.82604,180.94298 12.8125,217.0625 55.51293,7.92413 124.76831,8.89248 185.5,10.3125 6.5159,-5.49051 12.97458,-11.05335 19.3125,-16.75 6.07282,-5.55693 11.83025,-11.446 17.4375,-17.46875 -1.84302,0.0115 -3.70773,0.0329 -5.4375,0.0312 -60.63902,-0.0561 -187.5,-8.5625 -187.5,-8.5625 0,0 -9.09697,-123.48957 -9.3125,-184.625 -0.28278,-13.00019 -0.38212,-17.11745 -0.34375,-26.625 0.26502,-65.66403 7.21875,-156.15625 7.21875,-156.15625 58.14064,-5.8256 129.17359,-9.81365 188.9375,-9.90625 59.76391,-0.0926 177.0625,12.34375 177.0625,12.34375 0,0 8.50843,141.8878 8.5625,174.625 l -0.375,14.6875 c 3.10241,-3.42791 6.4678,-6.59118 9.75,-9.84375 1.66579,-1.83863 3.15269,-3.86319 4.9375,-5.59375 1.37891,-1.33699 2.3548,-1.99474 3.78125,-3.21875 0.58887,-0.5053 1.17255,-1.04419 1.75,-1.5625 3.098,-3.16583 6.33262,-6.17978 9.75,-9 0.33009,-0.34983 0.65868,-0.72363 1,-1.0625 0.42078,-0.41778 0.86875,-0.79279 1.28125,-1.21875 0.18784,-0.19399 0.64533,-0.74553 1.09375,-1.28125 l 0,-0.34375 C 759.70869,257.72155 751.07649,166.75699 747.75,136.8125 671.96686,130.75159 607.58531,123.77567 536.0625,122.96875 z M 757.59375,343.9375 c -0.47421,0.53485 -0.93504,1.08567 -1.4375,1.59375 -0.13361,0.1351 -0.52438,0.48099 -0.78125,0.71875 0.51027,-0.30545 0.78669,-0.46499 2.09375,-1.125 0.0318,-0.0161 0.0621,-0.0159 0.0937,-0.0312 z m -0.125,6.875 c -0.25691,0.15484 -0.25704,0.16003 -0.78125,0.46875 -1.72492,1.183 -2.69423,1.78684 -4.34375,3.15625 -2.19903,1.8256 -3.0883,2.7762 -5.125,4.90625 -3.42223,3.57908 -2.20705,2.29899 -5.40625,6.34375 -0.9001,1.24143 -1.87228,2.44016 -2.71875,3.71875 -4.83068,7.29681 -8.15697,15.46985 -11.75,23.40625 l -1.8125,4.96875 c -0.2508,0.63379 -0.49458,1.27232 -0.75,1.90625 0.293,-0.28322 0.5787,-0.56161 0.875,-0.84375 0.49763,-0.47288 1.02607,-0.94087 1.5,-1.4375 0.1404,-0.14713 2.4031,-2.83572 2.4375,-2.875 1.46277,-1.67025 3.03019,-3.20812 4.625,-4.75 0.32754,-0.31006 0.64385,-0.62483 0.96875,-0.9375 0.50069,-0.59396 1.01285,-1.17551 1.5,-1.78125 1.40939,-1.60915 2.77235,-3.25799 4.1875,-4.875 -0.1268,-0.85248 0.0949,-1.92031 0.875,-3.09375 1.02168,-1.53679 2.0853,-3.06636 3.25,-4.5 0.45848,-0.56434 0.98702,-1.08551 1.4375,-1.65625 0.39333,-0.49833 0.71671,-1.02049 1.09375,-1.53125 0.4539,-0.6149 0.94118,-1.23726 1.40625,-1.84375 0.40054,-0.53415 0.78854,-1.05842 1.1875,-1.59375 1.3819,-1.8542 2.84585,-3.63844 4.375,-5.375 2.35322,-2.6724 0.93999,-0.80472 2.75,-3.375 0.0221,-0.0309 0.0404,-0.0628 0.0625,-0.0937 z m -19.90625,12.21875 c -2.9921,3.16699 -5.83029,6.4544 -8.53125,9.875 -0.488,0.63397 -0.94856,1.29842 -1.46875,1.90625 -1.05955,1.23807 -2.34721,2.21631 -3.5,3.34375 L 723.75,388.625 c 3.30997,-7.45474 6.56121,-14.98706 11.0625,-21.8125 0.85763,-1.30046 1.83229,-2.52151 2.75,-3.78125 z m 17.09375,85.375 c -0.25602,0.27262 -0.51402,0.36234 -0.84375,0.75 -0.32973,0.38766 -0.67952,1.08696 -1.03125,1.625 -0.29903,0.45743 -0.74227,0.85983 -1.0625,1.3125 0.0363,-0.0714 -0.3285,0.42508 -0.90625,1.03125 -0.0274,0.0287 -0.10669,0.0518 -0.1875,0.0625 l -0.4375,0.78125 c -0.0884,0.13179 -0.23247,0.23061 -0.34375,0.34375 -0.37505,0.36315 -0.76466,0.68736 -1.15625,1.03125 -0.0436,0.0756 -0.10285,0.22747 -0.15625,0.34375 -0.0409,0.21383 -0.10692,0.42342 -0.1875,0.625 -0.28345,0.70907 -1.12133,1.34076 -1.6875,2 -0.1048,0.0638 -0.32617,0.25189 -0.40625,0.28125 -0.0581,0.0691 -0.0952,0.15244 -0.15625,0.21875 -0.0458,0.0498 0.0239,-0.0723 0.0937,-0.1875 -0.80396,1.02511 -0.42375,0.76179 -0.8125,1 -0.24631,0.65933 -0.56561,1.35841 -1.0625,1.59375 -0.18794,0.42938 -0.55286,1.18511 -0.6875,1.03125 -0.0282,-0.0322 -0.0315,-0.0742 -0.0312,-0.125 -0.43664,0.86442 -0.0134,0.45631 -0.59375,1 -0.28116,0.20386 -0.0743,0.0827 -0.21875,0.1875 -0.35677,0.35399 -0.57838,0.80117 -0.9375,1.15625 -0.0712,0.0493 -0.18692,0.16633 -0.28125,0.25 -0.16445,0.28464 -0.34045,0.54889 -0.59375,0.75 -0.16592,0.13174 -0.0117,-0.12252 0.1875,-0.40625 -0.18113,0.16606 -0.33243,0.32188 -0.4375,0.375 -0.15212,0.32157 -0.34346,1.0612 -0.625,0.84375 -0.0195,-0.0151 0.0188,-0.0565 0.0625,-0.15625 -0.17039,0.28615 -0.20221,0.34223 -0.46875,0.78125 -0.0318,0.0524 -0.10851,0.0865 -0.15625,0.125 -0.046,0.0323 -0.0814,0.0389 -0.0937,0.0312 -0.0592,0.18925 -0.14146,0.36634 -0.25,0.53125 -0.0675,0.10265 -0.38668,0.40891 -0.625,0.65625 -0.0464,0.0457 -0.0809,0.10745 -0.125,0.15625 -0.12774,0.12923 -0.21649,0.22709 -0.21875,0.21875 -0.0684,0.0789 -0.14604,0.14545 -0.21875,0.21875 -0.13246,0.26987 -0.29752,0.53733 -0.375,0.5 -0.0669,0.21837 -0.095,0.24078 -0.4375,0.59375 -0.48881,0.50858 -0.96999,1.00638 -1.53125,1.4375 0.0122,-0.15006 0.0311,-0.11398 -0.125,0.125 -0.41874,0.64107 -0.18758,0.3736 -0.875,1.375 -0.0243,0.0353 0.0667,-0.14917 0.0312,-0.125 -0.0577,0.0394 -0.0863,0.12928 -0.125,0.1875 -0.65122,1.07628 -1.34464,2.06891 -2.125,3.0625 -0.31422,0.22487 -0.62175,0.43361 -0.9375,0.65625 -0.56662,1.32357 -0.29338,0.91081 -1.34375,2.34375 -0.71597,0.71723 -1.49166,1.38843 -2.1875,2.125 -0.68396,0.77304 -1.33322,1.64692 -2.125,2.3125 -0.0477,0.0401 -0.14595,-0.0464 -0.1875,0 -0.5107,0.57164 -0.69581,1.39615 -1.375,1.84375 -0.60961,0.53779 -1.23037,1.08968 -1.75,1.71875 -0.30613,0.37059 -0.89779,1.33455 -1.125,1.65625 -0.1127,0.15957 -0.25244,0.28539 -0.375,0.4375 -0.1392,0.20221 -0.28459,0.40525 -0.4375,0.59375 -0.047,0.0659 -0.13039,0.1398 -0.1875,0.21875 -0.24491,0.3386 -0.25111,0.37718 -0.71875,1 -0.19741,0.26293 -0.42374,0.51641 -0.65625,0.75 -0.0208,0.36296 -0.0431,0.73314 -0.0625,1.0625 -0.0383,0.65127 -0.0763,1.29739 -0.1141,1.93819 -1.42089,24.08608 -2.5109,40.65556 -2.5109,40.65556 0,0 -13.46115,0.96893 -32.4375,2.21875 -0.48801,0.54675 -0.98006,1.07885 -1.46875,1.625 -4.11712,5.13398 -8.19196,10.30634 -12.3125,15.4375 -3.87809,5.6429 -8.06588,11.04588 -12.03125,16.625 -0.97782,1.46243 -2.02134,2.89557 -3.0625,4.3125 39.41519,-2.08999 74.38034,-4.9726 90.90625,-8.125 3.19938,-28.74771 6.48154,-73.24918 8.65625,-117.8125 0.0194,-0.39783 0.0437,-0.7917 0.0625,-1.1875 z m -14.5,17.71875 c 0.005,-0.008 -0.005,-0.0229 0,-0.0312 0.002,-0.003 0.0296,0.004 0.0312,0 0.15145,-0.13266 0.40027,-0.52073 0.5,-0.65625 -0.0239,0.004 -0.0507,0.0128 -0.0625,0 l -0.15625,0.125 c -0.0129,0.0221 -0.0185,0.0404 -0.0312,0.0625 l -0.8125,0.75 c 0.1803,-0.0879 0.37298,-0.12895 0.53125,-0.25 z m 5.4375,-7.125 c -0.0493,0.13072 -0.10172,0.28736 -0.15625,0.4375 0.11633,-0.2757 0.22295,-0.61446 0.15625,-0.4375 z"
         style="font-size:medium;font-style:normal;font-variant:normal;font-weight:normal;font-stretch:normal;text-indent:0;text-align:start;text-decoration:none;line-height:normal;letter-spacing:normal;word-spacing:normal;text-transform:none;direction:ltr;block-progression:tb;writing-mode:lr-tb;text-anchor:start;color:#000000;fill:#333333;fill-opacity:1;fill-rule:nonzero;stroke:none;stroke-width:5;marker:none;visibility:visible;display:inline;overflow:visible;enable-background:accumulate;font-family:AlArabiya;-inkscape-font-specification:AlArabiya" />
      <path
         transform="matrix(0.2605107,0,0,0.2605107,366.45666,529.09064)"
         d="m 740.76534,378.20129 c 0,112.81612 -94.47055,204.27166 -211.00588,204.27166 -116.53533,0 -211.00587,-91.45554 -211.00587,-204.27166 0,-112.81611 94.47054,-204.27165 211.00587,-204.27165 116.53533,0 211.00588,91.45554 211.00588,204.27165 z"
         sodipodi:ry="204.27165"
         sodipodi:rx="211.00587"
         sodipodi:cy="378.20129"
         sodipodi:cx="529.75946"
         id="path4841-2"
         style="fill:#333333;fill-opacity:0;stroke:#b3b3b3;stroke-width:30;stroke-linejoin:miter;stroke-miterlimit:4;stroke-opacity:1;stroke-dasharray:none"
         sodipodi:type="arc" />
      <path
         transform="matrix(0.2605107,0,0,0.2605107,366.45666,527.00655)"
         d="m 740.76534,378.20129 c 0,112.81612 -94.47055,204.27166 -211.00588,204.27166 -116.53533,0 -211.00587,-91.45554 -211.00587,-204.27166 0,-112.81611 94.47054,-204.27165 211.00587,-204.27165 116.53533,0 211.00588,91.45554 211.00588,204.27165 z"
         sodipodi:ry="204.27165"
         sodipodi:rx="211.00587"
         sodipodi:cy="378.20129"
         sodipodi:cx="529.75946"
         id="path4841"
         style="fill:#333333;fill-opacity:0;stroke:#333333;stroke-width:35;stroke-linejoin:miter;stroke-miterlimit:4;stroke-opacity:1;stroke-dasharray:none"
         sodipodi:type="arc" />
      <g
         transform="translate(-2,0)"
         id="g3090">
        <path
           inkscape:connector-curvature="0"
           style="font-size:medium;font-style:normal;font-variant:normal;font-weight:normal;font-stretch:normal;text-indent:0;text-align:start;text-decoration:none;line-height:normal;letter-spacing:normal;word-spacing:normal;text-transform:none;direction:ltr;block-progression:tb;writing-mode:lr-tb;text-anchor:start;color:#000000;fill:#b3b3b3;fill-opacity:0.8;fill-rule:nonzero;stroke:#000000;stroke-width:3.90766048;stroke-opacity:0;marker:none;visibility:visible;display:inline;overflow:visible;enable-background:accumulate;font-family:AlArabiya;-inkscape-font-specification:AlArabiya"
           d="m 538.57725,627.10939 c -10.74793,-10.73605 -21.49767,-21.4704 -32.22191,-32.23006 -10.85653,10.89601 -21.73929,21.76615 -32.64525,32.61269 10.23804,10.03177 22.74402,23.50012 33.56517,32.9546 -1.47947,-4.62317 -4.37455,-13.19542 -8.53172,-16.37147 -5.52964,-5.51764 -11.0575,-11.03706 -16.58313,-16.55871 8.08176,-8.04545 16.15219,-16.10232 24.19493,-24.18679 8.03929,8.0879 16.11373,16.14074 24.17864,24.20307 -3.34235,3.40054 -6.77575,6.74519 -10.15991,10.11107 1.38337,1.42774 2.77134,2.85128 4.16817,4.26586 4.87166,-4.74367 9.73474,-9.49846 14.39321,-14.44206 l -0.18421,-0.18421 -0.17399,-0.17399 z"
           id="rect2834-3-2"
           sodipodi:nodetypes="ccccccccccccc" />
        <path
           inkscape:connector-curvature="0"
           style="font-size:medium;font-style:normal;font-variant:normal;font-weight:normal;font-stretch:normal;text-indent:0;text-align:start;text-decoration:none;line-height:normal;letter-spacing:normal;word-spacing:normal;text-transform:none;direction:ltr;block-progression:tb;writing-mode:lr-tb;text-anchor:start;color:#000000;fill:#b3b3b3;fill-opacity:0.8;fill-rule:nonzero;stroke:#000000;stroke-width:3.90766048;stroke-opacity:0;marker:none;visibility:visible;display:inline;overflow:visible;enable-background:accumulate;font-family:AlArabiya;-inkscape-font-specification:AlArabiya"
           d="m 505.76919,595.4085 c -10.73605,10.74793 -21.4704,21.49767 -32.23006,32.22192 10.89601,10.85652 21.76615,21.73929 32.61269,32.64524 10.03177,-10.23804 23.50012,-22.74402 32.9546,-33.56517 -4.62317,1.47947 -13.19542,4.37455 -16.37147,8.53172 -5.51764,5.52964 -11.03706,11.0575 -16.55871,16.58314 -8.04545,-8.08176 -16.10232,-16.15219 -24.18679,-24.19493 8.0879,-8.03929 16.14074,-16.11374 24.20307,-24.17865 3.40054,3.34235 6.74519,6.77575 10.11107,10.15991 1.42774,-1.38337 2.85128,-2.77134 4.26586,-4.16817 -4.74367,-4.87165 -9.49846,-9.73474 -14.44206,-14.39321 l -0.18421,0.18421 -0.17399,0.17399 z"
           id="rect2834-3"
           sodipodi:nodetypes="ccccccccccccc" />
        <path
           inkscape:connector-curvature="0"
           style="font-size:medium;font-style:normal;font-variant:normal;font-weight:normal;font-stretch:normal;text-indent:0;text-align:start;text-decoration:none;line-height:normal;letter-spacing:normal;word-spacing:normal;text-transform:none;direction:ltr;block-progression:tb;writing-mode:lr-tb;text-anchor:start;color:#000000;fill:#333333;fill-opacity:1;fill-rule:nonzero;stroke:none;stroke-width:15;marker:none;visibility:visible;display:inline;overflow:visible;enable-background:accumulate;font-family:AlArabiya;-inkscape-font-specification:AlArabiya"
           d="m 505.76919,593.32441 c -10.73605,10.74793 -21.4704,21.49768 -32.23006,32.22192 10.89601,10.85653 21.76615,21.73929 32.61269,32.64525 8.33561,-8.50701 17.06544,-17.06324 25.20317,-25.42371 1.69412,-1.74049 6.80416,-6.4421 8.40271,-8.27172 -2.98588,0.93803 -8.91546,2.44423 -12.04483,4.01054 -1.82681,1.82681 -3.81558,3.13005 -4.97792,4.65144 -5.51764,5.52963 -11.03706,11.05749 -16.55871,16.58313 -8.04545,-8.08175 -16.10232,-16.15219 -24.18679,-24.19493 8.0879,-8.03929 16.14074,-16.11374 24.20307,-24.17865 3.40054,3.34235 6.74519,6.77575 10.11107,10.15992 1.42774,-1.38338 2.85128,-2.77135 4.26586,-4.16817 -4.74367,-4.87166 -9.49846,-9.73474 -14.44206,-14.39322 l -0.18421,0.18421 -0.17399,0.17399 z"
           id="rect2834"
           sodipodi:nodetypes="cccsccccccccccc" />
        <path
           inkscape:connector-curvature="0"
           style="font-size:medium;font-style:normal;font-variant:normal;font-weight:normal;font-stretch:normal;text-indent:0;text-align:start;text-decoration:none;line-height:normal;letter-spacing:normal;word-spacing:normal;text-transform:none;direction:ltr;block-progression:tb;writing-mode:lr-tb;text-anchor:start;color:#000000;fill:#333333;fill-opacity:1;fill-rule:nonzero;stroke:none;stroke-width:15;marker:none;visibility:visible;display:inline;overflow:visible;enable-background:accumulate;font-family:AlArabiya;-inkscape-font-specification:AlArabiya"
           d="m 474.39393,626.45812 c 10.74793,10.73605 21.49768,21.4704 32.22192,32.23006 10.85653,-10.89601 21.73929,-21.76615 32.64525,-32.61269 -8.50701,-8.33561 -17.06324,-17.06544 -25.42371,-25.20317 -1.74049,-1.69412 -6.4421,-6.80416 -8.27172,-8.40271 0.93803,2.98588 2.44423,8.91546 4.01054,12.04483 1.82681,1.82681 3.13005,3.81558 4.65144,4.97792 5.52963,5.51764 11.05749,11.03706 16.58313,16.55871 -8.08175,8.04545 -16.15219,16.10232 -24.19493,24.18679 -8.03929,-8.0879 -16.11374,-16.14074 -24.17865,-24.20307 3.34235,-3.40054 6.77575,-6.74519 10.15992,-10.11107 -1.38338,-1.42774 -2.77135,-2.85128 -4.16817,-4.26586 -4.87166,4.74367 -9.73474,9.49846 -14.39322,14.44206 l 0.18421,0.18421 0.17399,0.17399 z"
           id="rect2834-0"
           sodipodi:nodetypes="cccsccccccccccc" />
      </g>
    </g>
  </g>
</svg>
